<svg width="32" height="32" viewBox="0 0 32 32" fill="none" xmlns="http://www.w3.org/2000/svg">
<path d="M31.9998 13.3333H29.3332C29.33 10.5053 28.2052 7.79407 26.2055 5.79437C24.2058 3.79467 21.4945 2.66984 18.6665 2.66667V0C22.2015 0.00388213 25.5907 1.40989 28.0903 3.90953C30.5899 6.40917 31.996 9.7983 31.9998 13.3333Z" fill="#F2781C"/>
<path d="M26.6665 13.3333H23.9998C23.9998 11.9188 23.4379 10.5622 22.4377 9.56202C21.4375 8.56182 20.081 7.99992 18.6665 7.99992V5.33325C20.7876 5.33537 22.8212 6.1789 24.321 7.67874C25.8209 9.17857 26.6644 11.2122 26.6665 13.3333Z" fill="#F2781C"/>
<path d="M20.696 19.2947L17.584 22.3613L9.63868 14.416L12.7053 11.304C12.8908 11.1153 13.016 10.8758 13.0649 10.6158C13.1138 10.3558 13.0842 10.0871 12.98 9.84399L9.78668 2.39065C9.66045 2.09674 9.43277 1.85801 9.14516 1.718C8.85756 1.578 8.52921 1.54605 8.22001 1.62799L2.35335 3.17732C2.06024 3.25316 1.80166 3.4265 1.62016 3.66883C1.43866 3.91116 1.34503 4.20804 1.35468 4.51065C1.7278 11.3292 4.56287 17.7806 9.33335 22.6667C14.221 27.4378 20.6745 30.2725 27.4947 30.644C27.7973 30.6536 28.0942 30.56 28.3365 30.3785C28.5788 30.197 28.7522 29.9384 28.828 29.6453L30.3773 23.7787C30.4593 23.4695 30.4273 23.1411 30.2873 22.8535C30.1473 22.5659 29.9086 22.3382 29.6147 22.212L22.1613 19.0187C21.9174 18.9134 21.6476 18.8835 21.3865 18.9327C21.1254 18.9818 20.885 19.1079 20.696 19.2947Z" fill="#F2781C"/>
</svg>
