<svg width="32" height="32" viewBox="0 0 32 32" fill="none" xmlns="http://www.w3.org/2000/svg">
<path d="M16 7C16.5523 7 17 6.55228 17 6C17 5.44772 16.5523 5 16 5C15.4477 5 15 5.44772 15 6C15 6.55228 15.4477 7 16 7Z" fill="#F2781C"/>
<path d="M18 24V23C18 22.23 18.297 21.532 18.775 21H0V22C0 24.757 2.243 27 5 27H18V24Z" fill="#F2781C"/>
<path d="M27 4V14.09C27.7045 14.2086 28.3819 14.4528 29 14.811V4C29 2.346 27.654 1 26 1H6C4.346 1 3 2.346 3 4V19H5V4C5 3.449 5.448 3 6 3H26C26.552 3 27 3.449 27 4Z" fill="#F2781C"/>
<path d="M31 22H30V20C30 17.794 28.206 16 26 16C23.794 16 22 17.794 22 20V22H21C20.7348 22 20.4804 22.1054 20.2929 22.2929C20.1054 22.4804 20 22.7348 20 23V30C20 30.2652 20.1054 30.5196 20.2929 30.7071C20.4804 30.8946 20.7348 31 21 31H31C31.2652 31 31.5196 30.8946 31.7071 30.7071C31.8946 30.5196 32 30.2652 32 30V23C32 22.7348 31.8946 22.4804 31.7071 22.2929C31.5196 22.1054 31.2652 22 31 22ZM24 20C24 18.897 24.897 18 26 18C27.103 18 28 18.897 28 20V22H24V20Z" fill="#F2781C"/>
</svg>
