<svg width="16" height="16" viewBox="0 0 16 16" fill="none" xmlns="http://www.w3.org/2000/svg">
<path d="M15.1969 6.70607C15.0523 6.56141 14.8353 6.56141 14.6907 6.70607L7.45801 13.9387C5.86683 15.5299 3.55239 15.7469 2.28667 14.445C0.984799 13.1431 1.23794 10.8287 2.79296 9.27365L10.4234 1.64322C11.436 0.630649 12.9548 0.449833 13.7866 1.28159C14.6183 2.11334 14.4737 3.63219 13.4249 4.64476L6.66242 11.4073C6.37312 11.6966 6.01148 11.8774 5.64985 11.9136C5.28822 11.9497 4.99891 11.8412 4.78194 11.6243C4.31181 11.1541 4.4203 10.3224 4.99891 9.74377L9.51931 5.22337C9.66397 5.07872 9.66397 4.86174 9.51931 4.71709C9.37466 4.57244 9.15768 4.57244 9.01303 4.71709L4.45647 9.23749L4.4203 9.27365C4.4203 9.27365 4.4203 9.30982 4.38414 9.30982C3.58855 10.1777 3.51622 11.4073 4.23949 12.1305C4.60112 12.4922 5.1074 12.673 5.68602 12.6368C6.22846 12.6007 6.73475 12.3475 7.16871 11.9136L13.9312 5.15105C15.2331 3.84917 15.4139 1.8602 14.2929 0.739138C13.1718 -0.381921 11.219 -0.201105 9.88095 1.10077L2.25051 8.7312C0.406188 10.5755 0.153046 13.3601 1.74423 14.9513C2.43133 15.6384 3.37157 16 4.38414 16C5.61369 16 6.91556 15.4576 7.9643 14.445L15.1969 7.21235C15.3416 7.0677 15.3416 6.85072 15.1969 6.70607Z" fill="#318FDB"/>
</svg>
