<svg width="88" height="88" viewBox="0 0 88 88" fill="none" xmlns="http://www.w3.org/2000/svg">
<circle cx="44" cy="44" r="44" fill="#FBF1DF"/>
<path d="M52.1562 53.4717L57.8124 49.5566L52.1562 46.5106V53.4717Z" fill="#F2781C"/>
<path d="M20 36V60.0938C20 62.42 21.8925 64.3125 24.2188 64.3125H63.7812C66.1075 64.3125 68 62.42 68 60.0938V36H20ZM36.5 57.5625H27.5C26.7234 57.5625 26.0938 56.9329 26.0938 56.1562C26.0938 55.3796 26.7234 54.75 27.5 54.75H36.5C37.2766 54.75 37.9062 55.3796 37.9062 56.1562C37.9062 56.9329 37.2766 57.5625 36.5 57.5625ZM36.5 51.5625H27.5C26.7234 51.5625 26.0938 50.9329 26.0938 50.1562C26.0938 49.3796 26.7234 48.75 27.5 48.75H36.5C37.2766 48.75 37.9062 49.3796 37.9062 50.1562C37.9062 50.9329 37.2766 51.5625 36.5 51.5625ZM36.5 45.5625H27.5C26.7234 45.5625 26.0938 44.9329 26.0938 44.1562C26.0938 43.3796 26.7234 42.75 27.5 42.75H36.5C37.2766 42.75 37.9062 43.3796 37.9062 44.1562C37.9062 44.9329 37.2766 45.5625 36.5 45.5625ZM59.4135 51.8688L53.7571 55.7848C53.2766 56.1174 52.7181 56.2862 52.1572 56.2862C51.7108 56.2862 51.2629 56.1794 50.851 55.9636C49.9212 55.4765 49.3438 54.5219 49.3438 53.4724V46.5107C49.3438 45.5112 49.856 44.6086 50.7141 44.0961C51.5722 43.5836 52.6098 43.5606 53.4897 44.0344L59.146 47.0801C60.0145 47.5477 60.5657 48.4148 60.6207 49.3997C60.6758 50.3843 60.2245 51.3074 59.4135 51.8688Z" fill="#F2781C"/>
<path d="M63.7812 24H24.2188C21.8925 24 20 25.8925 20 28.2188V33.1875H68V28.2188C68 25.8925 66.1075 24 63.7812 24ZM27.5 30C26.7234 30 26.0938 29.3704 26.0938 28.5938C26.0938 27.8171 26.7234 27.1875 27.5 27.1875C28.2766 27.1875 28.9062 27.8171 28.9062 28.5938C28.9062 29.3704 28.2766 30 27.5 30ZM33.5 30.0001C32.7234 30.0001 32.0938 29.3705 32.0938 28.5938C32.0938 27.8172 32.7234 27.1876 33.5 27.1876C34.2766 27.1876 34.9062 27.8172 34.9062 28.5938C34.9062 29.3705 34.2766 30.0001 33.5 30.0001ZM39.5 30C38.7234 30 38.0938 29.3704 38.0938 28.5938C38.0938 27.8171 38.7234 27.1875 39.5 27.1875C40.2766 27.1875 40.9062 27.8171 40.9062 28.5938C40.9062 29.3704 40.2766 30 39.5 30Z" fill="#F2781C"/>
</svg>
