<svg width="88" height="88" viewBox="0 0 88 88" fill="none" xmlns="http://www.w3.org/2000/svg">
<circle cx="44" cy="44" r="44" fill="#FBF1DF"/>
<path d="M27.4618 29.9997C27.9929 30.4048 28.7515 30.3029 29.1568 29.7721C32.7239 25.0987 38.134 22.4186 44.0001 22.4186C49.8663 22.4186 55.2764 25.0988 58.8435 29.7721C59.0815 30.0839 59.4414 30.2476 59.8057 30.2476C60.0614 30.2476 60.3195 30.1668 60.5385 29.9997C61.0692 29.5943 61.171 28.8356 60.766 28.3046C56.7374 23.0269 50.6266 20 44.0001 20C37.3737 20 31.2628 23.0269 27.2344 28.3046C26.8292 28.8356 26.9311 29.5943 27.4618 29.9997Z" fill="#F2781C"/>
<path d="M56.8545 36.4503C56.8545 38.5327 58.5489 40.2271 60.6313 40.2271C62.7137 40.2271 64.4081 38.5327 64.4081 36.4503C64.4081 34.3678 62.7137 32.6735 60.6313 32.6735C58.5489 32.6735 56.8545 34.3677 56.8545 36.4503Z" fill="#F2781C"/>
<path d="M64.4968 41.4804C64.4881 41.4775 63.5365 41.1854 63.5365 41.1854C63.1919 41.0802 62.8176 41.145 62.5291 41.361L60.6316 42.7817L58.7341 41.361C58.4454 41.1449 58.0709 41.0801 57.7267 41.1854C57.7267 41.1854 56.7751 41.4775 56.7664 41.4804C55.2352 41.9909 54.2065 43.4182 54.2065 45.0321V50.7418C54.2065 50.9621 54.2709 51.1775 54.3921 51.3614L56.3069 54.2755V61.9284C56.3069 62.5517 56.8121 63.057 57.4355 63.057H63.8279C64.4512 63.057 64.9564 62.5517 64.9564 61.9284V54.2755L66.8713 51.3614C66.9923 51.1774 67.0568 50.9619 67.0568 50.7418V45.0321C67.0568 43.4182 66.028 41.9909 64.4968 41.4804Z" fill="#F2781C"/>
<path d="M27.3693 40.2271C29.4517 40.2271 31.1461 38.5327 31.1461 36.4503C31.1461 34.3678 29.4517 32.6735 27.3693 32.6735C25.2868 32.6735 23.5923 34.3677 23.5923 36.4503C23.5923 38.5329 25.2867 40.2271 27.3693 40.2271Z" fill="#F2781C"/>
<path d="M31.2341 41.4804C31.2254 41.4775 30.2738 41.1854 30.2738 41.1854C29.9291 41.0802 29.5551 41.145 29.2664 41.361L27.3689 42.7817L25.4714 41.361C25.1829 41.1449 24.8083 41.0801 24.464 41.1854C24.464 41.1854 23.5124 41.4775 23.5037 41.4804C21.9725 41.9909 20.9438 43.4182 20.9438 45.0321V50.7418C20.9438 50.9621 21.0082 51.1775 21.1294 51.3614L23.0442 54.2755V61.9284C23.0442 62.5517 23.5494 63.057 24.1728 63.057H30.565C31.1884 63.057 31.6936 62.5517 31.6936 61.9284V54.2755L33.6084 51.3614C33.7295 51.1774 33.7939 50.9619 33.7939 50.7418V45.0321C33.7939 43.4182 32.7651 41.9909 31.2341 41.4804Z" fill="#F2781C"/>
<path d="M48.8718 31.1274C48.8718 28.4414 46.6864 26.256 44.0003 26.256C41.3143 26.256 39.1289 28.4414 39.1289 31.1274C39.1289 33.8137 41.3143 35.9989 44.0003 35.9989C46.6864 35.9989 48.8718 33.8137 48.8718 31.1274Z" fill="#F2781C"/>
<path d="M49.3504 38.3598L49.3424 38.3572L47.952 37.9305C47.7327 37.8631 47.4983 37.9792 47.4194 38.1956L44.4958 46.2174C44.3271 46.6801 43.6727 46.6801 43.504 46.2174L40.5803 38.1956C40.5167 38.0209 40.3518 37.9113 40.175 37.9113C40.1331 37.9113 38.659 38.3565 38.659 38.3565C36.8829 38.9484 35.6963 40.5949 35.6963 42.4567V50.9426C35.6963 51.0268 35.721 51.1092 35.7672 51.1796L38.8179 55.8219V67.5682C38.8179 67.8067 39.0112 68 39.2497 68H48.75C48.9886 68 49.1819 67.8067 49.1819 67.5682V55.8219L52.2325 51.1796C52.2788 51.1092 52.3035 51.0268 52.3035 50.9426V42.4344C52.3033 40.5807 51.1121 38.9369 49.3504 38.3598Z" fill="#F2781C"/>
<path d="M45.1427 38.1909C45.022 38.0593 44.8453 37.993 44.6666 37.993H43.334C43.1554 37.993 42.9788 38.0593 42.8579 38.1909C42.6709 38.3947 42.6438 38.689 42.7765 38.9189L43.4887 39.9927L43.1553 42.8056L43.8119 44.5524C43.8759 44.7281 44.1243 44.7281 44.1885 44.5524L44.8451 42.8056L44.5117 39.9927L45.224 38.9189C45.3568 38.689 45.3297 38.3947 45.1427 38.1909Z" fill="#F2781C"/>
</svg>
