<svg width="88" height="88" viewBox="0 0 88 88" fill="none" xmlns="http://www.w3.org/2000/svg">
<circle cx="44" cy="44" r="44" fill="#FBF1DF"/>
<path d="M58.6718 53.7505C58.3173 52.9022 57.4636 52.3591 56.6491 52.025L51.143 49.4897L48.4976 47.2588L44.2471 51.4864H44.2438L46.0783 63.7491C46.0849 63.7912 46.0739 63.8342 46.049 63.8686L44.131 66.4934C44.1005 66.5357 44.0518 66.5601 44 66.5601C43.9481 66.5601 43.8994 66.5353 43.8689 66.4934L41.9511 63.8686C41.9259 63.8342 41.9153 63.7908 41.9216 63.7491L43.7559 51.4862H43.7531L39.5027 47.2588L36.8573 49.4897L31.3509 52.025C30.5362 52.3591 29.7357 52.8663 29.3284 53.7505C29.3284 53.7505 23.3431 67.9999 26.5895 67.9999H61.4114C64.6572 68.0002 58.6718 53.7505 58.6718 53.7505Z" fill="#F2781C"/>
<path d="M59.0541 34.2131C59.137 34.2042 59.2116 34.1646 59.2629 34.1005C59.3149 34.0365 59.3384 33.954 59.3292 33.872C59.2676 33.3457 59.2056 32.8205 59.1446 32.2941L59.0162 31.1928C58.9967 31.0284 58.8496 30.9088 58.684 30.9236L58.4458 30.924L58.4504 27.2269L58.575 27.1816L58.9906 27.0316C59.3426 26.9043 59.5769 26.5706 59.5769 26.1967C59.5769 25.8227 59.3426 25.4889 58.9906 25.3614L44.3016 20.053C44.1062 19.9824 43.8926 19.9824 43.6977 20.053L29.0084 25.3614C28.6567 25.4889 28.4224 25.8227 28.4224 26.1967C28.4224 26.5706 28.6567 26.9043 29.0084 27.0316L34.4386 28.994C34.0553 30.2042 33.8809 31.5897 33.8966 33.1323C33.9921 41.9313 39.1 47.1784 43.8263 47.1784C48.4973 47.1784 53.6605 41.9313 53.7557 33.1323C53.7714 31.6372 53.6066 30.2904 53.2479 29.1071L57.1964 27.6803L57.2047 30.9254L56.9661 30.9252C56.8004 30.9108 56.6532 31.0299 56.6343 31.1956L56.3255 33.875C56.3162 33.9566 56.3403 34.0382 56.392 34.1024C56.4437 34.1663 56.5191 34.2073 56.6008 34.2141L59.0541 34.2131ZM43.8269 45.0416C39.7034 45.0416 36.858 40.2111 36.284 35.3823C35.7533 30.9165 42.2117 30.7086 42.5868 33.4766C42.7023 34.3275 41.7252 35.2391 41.836 35.5905C42.3826 37.3253 51.4317 29.9282 51.3699 35.3801C51.3263 39.2294 47.7558 45.0416 43.8269 45.0416Z" fill="#F2781C"/>
</svg>
