<svg width="81" height="70" viewBox="0 0 81 70" fill="none" xmlns="http://www.w3.org/2000/svg">
<path opacity="0.15" d="M33.3918 12.6066C26.5592 13.7125 21.8204 16.1453 19.1755 19.9052C16.751 23.4439 15.5388 29.6366 15.5388 38.4834H32.4V70H0V43.4597C0 29.0837 2.6449 18.2464 7.93469 10.9479C13.2245 3.64928 21.7102 0 33.3918 0V12.6066ZM81 12.6066C74.1673 13.7125 69.4286 16.1453 66.7837 19.9052C64.3592 23.4439 63.1469 29.6366 63.1469 38.4834H80.0081V70H47.6082V43.4597C47.6082 29.0837 50.2531 18.2464 55.5429 10.9479C60.8326 3.64928 69.3184 0 81 0V12.6066Z" fill="#BDBDBD"/>
</svg>
