<svg width="200" height="65" viewBox="0 0 200 65" fill="none" xmlns="http://www.w3.org/2000/svg">
<g clip-path="url(#clip0)">
<path d="M16.0477 4.20436C18.5914 3.14486 21.4083 3.76711 23.2692 5.54976L25.1642 2.72443L14.1868 0L8.33105 9.90547L11.9845 10.5277C11.865 7.87056 13.4185 5.29749 16.0477 4.20436Z" fill="white"/>
<path d="M33.3245 45.7939C35.3561 46.618 37.4901 47.2234 39.6583 47.627C36.9609 44.8858 34.7245 41.6064 33.1197 37.8729C29.6711 29.8173 29.876 21.1564 32.9831 13.6558C33.7001 11.9404 34.5537 10.2923 35.561 8.71146C32.488 12.1254 28.5956 14.9171 24.0544 16.8006C22.8081 17.322 21.5277 17.7592 20.2644 18.1124C18.0108 18.7347 15.7232 19.1046 13.4526 19.2392C9.40649 19.4746 5.41161 18.9365 1.63867 17.7256C7.71635 21.0386 12.7356 26.3193 15.6378 33.0967C19.0864 41.1523 18.8815 49.8133 15.7744 57.3139C14.733 59.8365 13.3502 62.2414 11.6771 64.4276C17.6353 60.8287 22.074 55.4976 24.6007 49.4097C25.5567 47.072 26.2567 44.6335 26.6323 42.1277C28.698 43.6245 30.9686 44.8521 33.3245 45.7939Z" fill="white"/>
<path d="M65.5737 13.0335V17.9274H72.3513V20.8032H65.5737V25.882H73.1708V28.8924H61.7666V10.04H73.1708V13.0335H65.5737Z" fill="white"/>
<path d="M91.8993 24.3853C91.0969 25.8148 89.9531 26.9247 88.4507 27.7151C86.9484 28.5056 85.1558 28.9092 83.073 28.9092H76.2783V10.04H83.073C85.1558 10.04 86.9484 10.4268 88.4507 11.2004C89.9531 11.974 91.114 13.0671 91.8993 14.4798C92.7017 15.8925 93.0943 17.5406 93.0943 19.4241C93.0943 21.3077 92.6846 22.9558 91.8993 24.3853ZM87.5118 23.9312C88.6385 22.8717 89.2019 21.375 89.2019 19.441C89.2019 17.507 88.6385 15.9934 87.5118 14.9339C86.385 13.8576 84.7802 13.3362 82.7316 13.3362H80.0683V25.5457H82.7316C84.7973 25.5289 86.385 24.9907 87.5118 23.9312Z" fill="white"/>
<path d="M99.9223 10.04V21.0891C99.9223 22.569 100.247 23.6789 100.912 24.4189C101.578 25.1589 102.517 25.5289 103.764 25.5289C104.993 25.5289 105.932 25.1589 106.598 24.4189C107.263 23.6789 107.588 22.569 107.588 21.0891V10.04H111.378V21.0891C111.378 22.8381 111.053 24.3012 110.388 25.512C109.722 26.7061 108.817 27.6142 107.656 28.2028C106.495 28.7914 105.163 29.0773 103.678 29.0773C101.391 29.0773 99.5467 28.4046 98.181 27.0424C96.8152 25.697 96.1152 23.7126 96.1152 21.0891V10.04H99.9223Z" fill="white"/>
<path d="M127.426 26.4034C126.931 27.2106 126.214 27.8665 125.258 28.3542C124.302 28.8419 123.141 29.0942 121.758 29.0942C120.409 29.0942 119.197 28.8755 118.122 28.4215C117.063 27.9674 116.21 27.3115 115.561 26.4538C114.912 25.5961 114.554 24.6039 114.468 23.4603H118.531C118.617 24.2339 118.941 24.8562 119.47 25.3775C120 25.882 120.717 26.1343 121.604 26.1343C122.407 26.1343 123.004 25.9325 123.431 25.5121C123.858 25.0916 124.063 24.5535 124.063 23.8976C124.063 23.309 123.892 22.8213 123.551 22.4345C123.209 22.0477 122.765 21.745 122.253 21.5095C121.724 21.2741 121.007 21.005 120.085 20.7023C118.89 20.3155 117.917 19.9287 117.166 19.5419C116.414 19.1551 115.766 18.6001 115.219 17.8769C114.69 17.1538 114.417 16.1952 114.417 15.018C114.417 13.4035 115.015 12.1254 116.192 11.1836C117.37 10.2418 118.941 9.78775 120.887 9.78775C122.919 9.78775 124.524 10.2755 125.719 11.2341C126.914 12.1926 127.597 13.4708 127.767 15.0852H123.653C123.551 14.4125 123.26 13.8576 122.782 13.4203C122.304 12.9831 121.673 12.7644 120.853 12.7644C120.153 12.7644 119.573 12.9494 119.146 13.3194C118.719 13.6894 118.497 14.2107 118.497 14.9003C118.497 15.4552 118.668 15.9093 118.992 16.2793C119.334 16.6493 119.743 16.9352 120.273 17.1706C120.785 17.4061 121.485 17.6583 122.373 17.9442C123.602 18.3646 124.592 18.7683 125.36 19.1382C126.128 19.5082 126.777 20.08 127.324 20.82C127.87 21.56 128.143 22.5522 128.143 23.763C128.16 24.7048 127.921 25.5961 127.426 26.4034Z" fill="white"/>
<path d="M135.074 21.8963V28.8924H131.25V10.04H138.215C140.469 10.04 142.176 10.5782 143.32 11.6377C144.464 12.6972 145.044 14.1603 145.044 15.9934C145.044 17.7928 144.447 19.2223 143.269 20.2986C142.091 21.375 140.401 21.8963 138.215 21.8963H135.074ZM141.169 15.9934C141.169 15.0516 140.913 14.3285 140.384 13.8239C139.854 13.3194 139.001 13.084 137.806 13.084H135.074V18.886H137.806C140.042 18.886 141.169 17.9274 141.169 15.9934Z" fill="white"/>
<path d="M159.47 25.1084H151.805L150.456 28.8924H146.41L153.444 10.2586H157.814L164.831 28.8924H160.785L159.47 25.1084ZM158.429 22.2495L155.612 14.2948L152.795 22.2495H158.429Z" fill="white"/>
<path d="M181.749 11.6713C183.32 12.8822 184.361 14.5303 184.874 16.6156H180.862C180.452 15.6066 179.803 14.7994 178.915 14.2107C178.045 13.6221 176.986 13.3362 175.757 13.3362C174.75 13.3362 173.828 13.5885 173.026 14.0762C172.206 14.5807 171.574 15.2871 171.131 16.212C170.687 17.137 170.448 18.2301 170.448 19.4746C170.448 20.7023 170.67 21.7786 171.131 22.7036C171.574 23.6285 172.223 24.3348 173.026 24.8394C173.845 25.3439 174.75 25.5793 175.757 25.5793C176.986 25.5793 178.045 25.2934 178.915 24.7048C179.786 24.1162 180.435 23.309 180.862 22.2999H184.874C184.361 24.3853 183.337 26.0334 181.749 27.2443C180.179 28.4551 178.198 29.0605 175.808 29.0605C173.982 29.0605 172.377 28.6569 170.977 27.8497C169.577 27.0425 168.484 25.8989 167.716 24.4526C166.948 22.9894 166.572 21.3413 166.572 19.4914C166.572 17.6247 166.948 15.9598 167.716 14.4966C168.484 13.0335 169.56 11.9068 170.96 11.0995C172.343 10.2923 173.965 9.88866 175.808 9.88866C178.198 9.85502 180.162 10.4605 181.749 11.6713Z" fill="white"/>
<path d="M191.823 13.0335V17.9274H198.6V20.8032H191.823V25.882H199.42V28.8924H188.016V10.04H199.42V13.0335H191.823Z" fill="white"/>
<path d="M65.6424 41.9091C65.6424 42.4304 65.5571 42.8677 65.3863 43.2545C65.2156 43.6413 64.9766 43.9272 64.6864 44.129L65.6595 44.8858L65.1644 45.3398L64.0206 44.4317C63.8328 44.4822 63.645 44.499 63.4572 44.499C63.0304 44.499 62.6548 44.3981 62.3134 44.1794C61.989 43.9776 61.7158 43.6749 61.5451 43.2881C61.3573 42.9013 61.272 42.464 61.2549 41.9427V41.5559C61.2549 41.0346 61.3402 40.5805 61.528 40.1937C61.7158 39.8069 61.9719 39.4873 62.2963 39.2855C62.6207 39.0837 63.0133 38.966 63.4401 38.966C63.884 38.966 64.2596 39.0669 64.601 39.2855C64.9425 39.5042 65.1985 39.7901 65.3693 40.1937C65.5571 40.5805 65.6424 41.0514 65.6424 41.5727V41.9091ZM64.9254 41.5559C64.9254 40.9168 64.7888 40.4291 64.5498 40.0928C64.2937 39.7564 63.9352 39.5714 63.4572 39.5714C63.0133 39.5714 62.6548 39.7396 62.3816 40.076C62.1256 40.4123 61.989 40.8832 61.9719 41.4886V41.8754C61.9719 42.4977 62.1085 42.9686 62.3646 43.3217C62.6207 43.6749 62.9962 43.8599 63.4572 43.8599C63.9181 43.8599 64.2766 43.6917 64.5327 43.3554C64.7888 43.019 64.9254 42.5481 64.9254 41.9259V41.5559Z" fill="white"/>
<path d="M69.1419 44.0281C68.8688 44.3476 68.4761 44.499 67.9469 44.499C67.5201 44.499 67.1786 44.3813 66.9567 44.129C66.7347 43.8768 66.6152 43.5236 66.6152 43.0359V40.4292H67.3152V43.0022C67.3152 43.6077 67.5713 43.9104 68.0664 43.9104C68.5956 43.9104 68.9541 43.7086 69.1248 43.3218V40.4123H69.8248V44.3981H69.159L69.1419 44.0281Z" fill="white"/>
<path d="M73.3762 44.4317C73.342 44.3476 73.3079 44.2131 73.2738 44.0113C72.9494 44.3476 72.5738 44.499 72.1128 44.499C71.7202 44.499 71.3787 44.3812 71.1227 44.1626C70.8666 43.944 70.7471 43.6581 70.7471 43.3217C70.7471 42.9013 70.9007 42.5818 71.2251 42.3463C71.5495 42.1109 71.9933 41.9932 72.5738 41.9932H73.2567V41.6736C73.2567 41.4382 73.1884 41.2532 73.0347 41.1018C72.8982 40.9673 72.6762 40.8832 72.386 40.8832C72.147 40.8832 71.925 40.9505 71.7714 41.0682C71.6007 41.1859 71.5153 41.3373 71.5153 41.5223H70.8154C70.8154 41.3205 70.8836 41.1355 71.0373 40.9505C71.1909 40.7655 71.3787 40.6141 71.6178 40.5132C71.8568 40.4123 72.1299 40.3451 72.4372 40.3451C72.8982 40.3451 73.2738 40.4628 73.5298 40.6982C73.7859 40.9337 73.9396 41.2532 73.9396 41.6568V43.4899C73.9396 43.8599 73.9908 44.1458 74.0761 44.3644V44.4317H73.3762ZM72.2153 43.9104C72.4372 43.9104 72.6421 43.8599 72.8299 43.7422C73.0177 43.6245 73.1713 43.4899 73.2567 43.3049V42.4809H72.7274C71.8738 42.4809 71.447 42.7331 71.447 43.2208C71.447 43.4395 71.5153 43.6076 71.669 43.7254C71.8055 43.8431 71.9933 43.9104 72.2153 43.9104ZM72.2836 39.7733V39.2015C72.4714 39.1847 72.6079 39.1678 72.6933 39.1342C72.7787 39.1006 72.8299 39.0333 72.8299 38.9324C72.8299 38.8315 72.7787 38.7642 72.6592 38.7138C72.5396 38.6633 72.4031 38.6465 72.2153 38.6465L72.2494 38.2597C72.625 38.2597 72.8982 38.327 73.103 38.4447C73.2908 38.5792 73.3933 38.7474 73.3933 38.9492C73.3933 39.1006 73.342 39.2183 73.2396 39.3192C73.1372 39.4201 73.0006 39.4874 72.8128 39.5042V39.7733H72.2836Z" fill="white"/>
<path d="M75.6975 40.4291L75.7146 40.9337C76.0219 40.5469 76.4316 40.3619 76.9267 40.3619C77.7803 40.3619 78.2072 40.8328 78.2242 41.7913V44.4317H77.5243V41.7913C77.5243 41.5055 77.456 41.2868 77.3194 41.1523C77.1828 41.0177 76.978 40.9505 76.7048 40.9505C76.4829 40.9505 76.278 41.0177 76.1073 41.1355C75.9365 41.2532 75.8 41.4045 75.7146 41.6064V44.4485H75.0146V40.4628H75.6975V40.4291Z" fill="white"/>
<path d="M81.9295 44.4317H81.2295V38.7642H81.9295V44.4317Z" fill="white"/>
<path d="M84.3702 43.4227L85.3092 40.4292H86.0433L84.4215 45.0371C84.1654 45.7098 83.7727 46.0294 83.2264 46.0294L83.0898 46.0125L82.8337 45.9621V45.4071L83.0215 45.4239C83.2605 45.4239 83.4313 45.3735 83.5678 45.2894C83.7044 45.1885 83.8069 45.0203 83.8922 44.7681L84.0459 44.3644L82.5947 40.4123H83.3459L84.3702 43.4227ZM84.7629 38.7474H85.5994L84.5922 39.8405H84.0288L84.7629 38.7474Z" fill="white"/>
<path d="M89.5092 39.4706V40.446H90.2604V40.9673H89.5092V43.4395C89.5092 43.6076 89.5434 43.7254 89.6117 43.7926C89.68 43.8767 89.7995 43.9104 89.9531 43.9104C90.0385 43.9104 90.1409 43.8935 90.2775 43.8599V44.4149C90.0897 44.4653 89.919 44.4822 89.7483 44.4822C89.441 44.4822 89.2019 44.3981 89.0483 44.2131C88.8946 44.0281 88.8093 43.759 88.8093 43.4227V40.9505H88.0752V40.4291H88.8093V39.4537H89.5092V39.4706Z" fill="white"/>
<path d="M93.0434 41.0514C92.9409 41.0346 92.8214 41.0177 92.7019 41.0177C92.241 41.0177 91.9337 41.2027 91.78 41.5895V44.4317H91.0801V40.4459H91.763L91.78 40.9C92.002 40.5469 92.3263 40.3619 92.7532 40.3619C92.8897 40.3619 92.9922 40.3787 93.0604 40.4123V41.0514H93.0434Z" fill="white"/>
<path d="M96.1673 44.0281C95.8941 44.3476 95.5015 44.499 94.9723 44.499C94.5454 44.499 94.204 44.3813 93.9821 44.129C93.7601 43.8768 93.6406 43.5236 93.6406 43.0359V40.4292H94.3406V43.0022C94.3406 43.6077 94.5967 43.9104 95.0918 43.9104C95.621 43.9104 95.9795 43.7086 96.1502 43.3218V40.4123H96.8502V44.3981H96.1844L96.1673 44.0281Z" fill="white"/>
<path d="M98.5579 40.4291L98.575 40.9337C98.8823 40.5469 99.292 40.3619 99.7871 40.3619C100.641 40.3619 101.067 40.8328 101.085 41.7913V44.4317H100.385V41.7913C100.385 41.5055 100.316 41.2868 100.18 41.1523C100.043 41.0177 99.8383 40.9505 99.5651 40.9505C99.3432 40.9505 99.1383 41.0177 98.9676 41.1355C98.7969 41.2532 98.6603 41.4045 98.575 41.6064V44.4485H97.875V40.4628H98.5579V40.4291Z" fill="white"/>
<path d="M101.972 42.3968C101.972 41.7745 102.125 41.2868 102.416 40.9168C102.706 40.5469 103.098 40.3619 103.576 40.3619C104.072 40.3619 104.464 40.53 104.737 40.8832L104.772 40.4459H105.403V44.3476C105.403 44.8689 105.25 45.2726 104.942 45.5753C104.635 45.878 104.208 46.0294 103.696 46.0294C103.406 46.0294 103.116 45.9621 102.842 45.8444C102.569 45.7266 102.347 45.5585 102.194 45.3398L102.552 44.9362C102.842 45.3062 103.218 45.4744 103.645 45.4744C103.986 45.4744 104.242 45.3735 104.43 45.1885C104.618 45.0035 104.72 44.7344 104.72 44.3981V44.0617C104.447 44.3812 104.072 44.5326 103.576 44.5326C103.098 44.5326 102.723 44.3476 102.433 43.9608C102.125 43.5572 101.972 43.0358 101.972 42.3968ZM102.672 42.464C102.672 42.9181 102.757 43.2713 102.945 43.5235C103.133 43.7758 103.389 43.9104 103.73 43.9104C104.174 43.9104 104.481 43.7085 104.686 43.3217V41.5055C104.481 41.1186 104.157 40.9337 103.73 40.9337C103.389 40.9337 103.133 41.0682 102.945 41.3205C102.757 41.5895 102.672 41.9595 102.672 42.464Z" fill="white"/>
<path d="M109.279 39.4706V40.446H110.03V40.9673H109.279V43.4395C109.279 43.6076 109.313 43.7254 109.381 43.7926C109.45 43.8767 109.569 43.9104 109.723 43.9104C109.808 43.9104 109.91 43.8935 110.047 43.8599V44.4149C109.859 44.4653 109.689 44.4822 109.518 44.4822C109.21 44.4822 108.971 44.3981 108.818 44.2131C108.664 44.0281 108.579 43.759 108.579 43.4227V40.9505H107.845V40.4291H108.579V39.4537H109.279V39.4706Z" fill="white"/>
<path d="M113.342 44.4317C113.308 44.3476 113.274 44.2131 113.24 44.0113C112.915 44.3476 112.54 44.499 112.079 44.499C111.686 44.499 111.345 44.3812 111.088 44.1626C110.832 43.944 110.713 43.6581 110.713 43.3217C110.713 42.9013 110.867 42.5818 111.191 42.3463C111.515 42.1109 111.959 41.9932 112.54 41.9932H113.223V41.6736C113.223 41.4382 113.154 41.2532 113.001 41.1018C112.864 40.9673 112.642 40.8832 112.352 40.8832C112.113 40.8832 111.891 40.9505 111.737 41.0682C111.567 41.1859 111.481 41.3373 111.481 41.5223H110.781C110.781 41.3205 110.849 41.1355 111.003 40.9505C111.157 40.7655 111.345 40.6141 111.584 40.5132C111.823 40.4123 112.096 40.3451 112.403 40.3451C112.864 40.3451 113.24 40.4628 113.496 40.6982C113.752 40.9337 113.905 41.2532 113.905 41.6568V43.4899C113.905 43.8599 113.957 44.1458 114.042 44.3644V44.4317H113.342ZM113.632 39.7733V39.8069H113.052L112.488 39.1847L111.925 39.8069H111.345V39.7565L112.266 38.7474H112.693L113.632 39.7733ZM112.198 43.9104C112.42 43.9104 112.625 43.8599 112.813 43.7422C113.001 43.6245 113.154 43.4899 113.24 43.3049V42.4809H112.693C111.84 42.4809 111.413 42.7331 111.413 43.2208C111.413 43.4395 111.481 43.6076 111.635 43.7254C111.788 43.8431 111.976 43.9104 112.198 43.9104Z" fill="white"/>
<path d="M115.68 40.4292L115.698 40.8664C115.988 40.5301 116.397 40.3451 116.893 40.3451C117.456 40.3451 117.849 40.5637 118.053 40.9841C118.19 40.7991 118.361 40.631 118.583 40.5133C118.805 40.3955 119.061 40.3283 119.351 40.3283C120.239 40.3283 120.7 40.7991 120.7 41.7241V44.3981H120V41.7577C120 41.4718 119.931 41.2532 119.795 41.1187C119.658 40.9841 119.436 40.9001 119.129 40.9001C118.873 40.9001 118.651 40.9841 118.48 41.1187C118.31 41.27 118.207 41.4718 118.19 41.7241V44.3812H117.49V41.7577C117.49 41.1691 117.2 40.8832 116.619 40.8832C116.158 40.8832 115.851 41.0682 115.68 41.455V44.3644H114.98V40.3787H115.68V40.4292Z" fill="white"/>
<path d="M127.597 39.8742H126.897V44.4317H126.265L126.231 44.0113C125.958 44.3476 125.565 44.5158 125.07 44.5158C124.592 44.5158 124.217 44.3308 123.926 43.944C123.636 43.5572 123.482 43.0695 123.482 42.4641V42.4136C123.482 41.8082 123.636 41.3037 123.926 40.9337C124.217 40.5637 124.609 40.3787 125.087 40.3787C125.565 40.3787 125.941 40.5469 126.214 40.8664V39.9078H125.224V39.3528H126.214V38.7979H126.914V39.3528H127.614V39.8742H127.597ZM124.165 42.4641C124.165 42.9181 124.268 43.2713 124.456 43.5236C124.643 43.7758 124.899 43.9104 125.241 43.9104C125.685 43.9104 126.009 43.7086 126.197 43.3218V41.4886C125.992 41.1187 125.668 40.9169 125.241 40.9169C124.899 40.9169 124.643 41.0514 124.438 41.3037C124.268 41.5896 124.165 41.9595 124.165 42.4641Z" fill="white"/>
<path d="M130.738 44.4317C130.704 44.3476 130.67 44.2131 130.636 44.0113C130.312 44.3476 129.936 44.499 129.475 44.499C129.082 44.499 128.741 44.3812 128.485 44.1626C128.229 43.944 128.109 43.6581 128.109 43.3217C128.109 42.9013 128.263 42.5818 128.587 42.3463C128.912 42.1109 129.356 41.9932 129.936 41.9932H130.619V41.6736C130.619 41.4382 130.551 41.2532 130.397 41.1018C130.26 40.9673 130.039 40.8832 129.748 40.8832C129.509 40.8832 129.287 40.9505 129.134 41.0682C128.963 41.1859 128.878 41.3373 128.878 41.5223H128.178C128.178 41.3205 128.246 41.1355 128.4 40.9505C128.553 40.7655 128.741 40.6141 128.98 40.5132C129.219 40.4123 129.492 40.3451 129.8 40.3451C130.26 40.3451 130.636 40.4628 130.892 40.6982C131.148 40.9337 131.302 41.2532 131.302 41.6568V43.4899C131.302 43.8599 131.353 44.1458 131.438 44.3644V44.4317H130.738ZM130.278 39.8405H129.68L128.707 38.7474H129.543L130.278 39.8405ZM129.578 43.9104C129.8 43.9104 130.004 43.8599 130.192 43.7422C130.38 43.6245 130.534 43.4899 130.619 43.3049V42.4809H130.073C129.219 42.4809 128.792 42.7331 128.792 43.2208C128.792 43.4395 128.861 43.6076 129.014 43.7254C129.168 43.8431 129.356 43.9104 129.578 43.9104Z" fill="white"/>
<path d="M132.224 42.3968C132.224 42.01 132.309 41.6568 132.463 41.3373C132.616 41.0177 132.838 40.7823 133.111 40.6141C133.385 40.4459 133.709 40.3619 134.067 40.3619C134.614 40.3619 135.058 40.5469 135.399 40.9337C135.74 41.3036 135.911 41.8082 135.911 42.4304V42.4809C135.911 42.8677 135.843 43.2208 135.689 43.5235C135.536 43.8263 135.314 44.0785 135.04 44.2467C134.767 44.4149 134.443 44.499 134.067 44.499C133.521 44.499 133.077 44.314 132.736 43.9272C132.394 43.5404 132.224 43.0527 132.224 42.4304V42.3968ZM132.907 42.464C132.907 42.9013 133.009 43.2545 133.214 43.5235C133.419 43.7926 133.709 43.9272 134.05 43.9272C134.409 43.9272 134.682 43.7926 134.887 43.5235C135.092 43.2545 135.194 42.8677 135.194 42.38C135.194 41.9427 135.092 41.5895 134.87 41.3205C134.665 41.0514 134.375 40.9168 134.033 40.9168C133.692 40.9168 133.419 41.0514 133.214 41.3205C133.026 41.5895 132.907 41.9763 132.907 42.464Z" fill="white"/>
<path d="M139.616 39.4706V40.446H140.367V40.9673H139.616V43.4395C139.616 43.6076 139.65 43.7254 139.718 43.7926C139.786 43.8767 139.906 43.9104 140.06 43.9104C140.145 43.9104 140.247 43.8935 140.384 43.8599V44.4149C140.196 44.4653 140.025 44.4822 139.855 44.4822C139.547 44.4822 139.308 44.3981 139.155 44.2131C139.001 44.0281 138.916 43.759 138.916 43.4227V40.9505H138.182V40.4291H138.916V39.4537H139.616V39.4706Z" fill="white"/>
<path d="M143.679 44.4317C143.645 44.3476 143.611 44.2131 143.576 44.0113C143.252 44.3476 142.877 44.499 142.416 44.499C142.023 44.499 141.681 44.3812 141.425 44.1626C141.169 43.944 141.05 43.6581 141.05 43.3218C141.05 42.9013 141.203 42.5818 141.528 42.3463C141.852 42.1109 142.296 41.9932 142.877 41.9932H143.559V41.6736C143.559 41.4382 143.491 41.2532 143.337 41.1018C143.201 40.9673 142.979 40.8832 142.689 40.8832C142.45 40.8832 142.228 40.9505 142.074 41.0682C141.903 41.1859 141.818 41.3373 141.818 41.5223H141.118C141.118 41.3205 141.186 41.1355 141.34 40.9505C141.494 40.7655 141.681 40.6141 141.92 40.5132C142.159 40.4123 142.433 40.3451 142.74 40.3451C143.201 40.3451 143.576 40.4628 143.833 40.6982C144.089 40.9337 144.242 41.2532 144.242 41.6568V43.4899C144.242 43.8599 144.294 44.1458 144.379 44.3644V44.4317H143.679ZM142.535 43.9104C142.757 43.9104 142.962 43.8599 143.15 43.7422C143.337 43.6245 143.491 43.4899 143.576 43.3049V42.4809H143.03C142.177 42.4809 141.75 42.7331 141.75 43.2208C141.75 43.4395 141.818 43.6076 141.972 43.7254C142.125 43.8431 142.313 43.9104 142.535 43.9104ZM142.108 45.323C142.108 45.2053 142.142 45.1212 142.211 45.0371C142.279 44.953 142.381 44.9194 142.518 44.9194C142.655 44.9194 142.757 44.953 142.825 45.0371C142.894 45.1212 142.928 45.2053 142.928 45.323C142.928 45.4407 142.894 45.5248 142.825 45.5921C142.757 45.6594 142.655 45.7098 142.518 45.7098C142.381 45.7098 142.279 45.6762 142.211 45.5921C142.142 45.5248 142.108 45.4407 142.108 45.323Z" fill="white"/>
<path d="M145.182 42.3968C145.182 42.01 145.267 41.6568 145.421 41.3373C145.574 41.0177 145.796 40.7823 146.069 40.6141C146.343 40.4459 146.667 40.3619 147.025 40.3619C147.572 40.3619 148.016 40.5469 148.357 40.9337C148.699 41.3036 148.869 41.8082 148.869 42.4304V42.4809C148.869 42.8677 148.801 43.2208 148.647 43.5235C148.494 43.8263 148.272 44.0785 147.999 44.2467C147.725 44.4149 147.401 44.499 147.025 44.499C146.479 44.499 146.035 44.314 145.694 43.9272C145.352 43.5404 145.182 43.0527 145.182 42.4304V42.3968ZM145.865 42.464C145.865 42.9013 145.967 43.2545 146.172 43.5235C146.377 43.7926 146.667 43.9272 147.008 43.9272C147.367 43.9272 147.64 43.7926 147.845 43.5235C148.05 43.2545 148.152 42.8677 148.152 42.38C148.152 41.9427 148.05 41.5895 147.828 41.3205C147.623 41.0514 147.333 40.9168 146.991 40.9168C146.65 40.9168 146.377 41.0514 146.172 41.3205C145.984 41.5895 145.865 41.9763 145.865 42.464Z" fill="white"/>
<path d="M153.256 43.944C153.495 43.944 153.717 43.8767 153.905 43.7254C154.093 43.574 154.195 43.389 154.213 43.1704H154.861C154.844 43.4058 154.776 43.6245 154.622 43.8263C154.469 44.0281 154.281 44.1963 154.025 44.314C153.769 44.4317 153.513 44.499 153.239 44.499C152.693 44.499 152.249 44.314 151.925 43.9608C151.6 43.6076 151.43 43.1031 151.43 42.4641V42.3463C151.43 41.9595 151.498 41.6064 151.652 41.3037C151.805 41.0009 152.01 40.7655 152.283 40.5973C152.556 40.4291 152.881 40.3451 153.239 40.3451C153.7 40.3451 154.076 40.4796 154.366 40.7487C154.656 41.0178 154.827 41.3709 154.844 41.7914H154.195C154.178 41.5391 154.076 41.3205 153.905 41.1523C153.734 40.9841 153.513 40.9 153.239 40.9C152.881 40.9 152.608 41.0178 152.42 41.27C152.232 41.5223 152.13 41.8754 152.13 42.3463V42.4809C152.13 42.9349 152.232 43.2881 152.42 43.5404C152.625 43.8094 152.898 43.944 153.256 43.944Z" fill="white"/>
<path d="M156.347 40.9169C156.654 40.5469 157.047 40.3619 157.542 40.3619C158.396 40.3619 158.822 40.8328 158.839 41.7914V44.4317H158.139V41.7914C158.139 41.5055 158.071 41.2868 157.935 41.1523C157.798 41.0178 157.593 40.9505 157.32 40.9505C157.098 40.9505 156.893 41.0178 156.723 41.1355C156.552 41.2532 156.415 41.4046 156.33 41.6064V44.4485H155.63V38.781H156.33V40.9169H156.347Z" fill="white"/>
<path d="M162.373 44.0281C162.1 44.3476 161.708 44.499 161.178 44.499C160.752 44.499 160.41 44.3813 160.188 44.129C159.966 43.8768 159.847 43.5236 159.847 43.0359V40.4292H160.547V43.0022C160.547 43.6077 160.803 43.9104 161.298 43.9104C161.827 43.9104 162.186 43.7086 162.356 43.3218V40.4123H163.056V44.3981H162.39L162.373 44.0281Z" fill="white"/>
<path d="M165.429 43.4227L166.368 40.4292H167.102L165.48 45.0371C165.224 45.7098 164.831 46.0294 164.285 46.0294L164.148 46.0125L163.892 45.9621V45.4071L164.08 45.4239C164.319 45.4239 164.49 45.3735 164.626 45.2894C164.763 45.1885 164.865 45.0203 164.951 44.7681L165.104 44.3644L163.653 40.4123H164.404L165.429 43.4227Z" fill="white"/>
<path d="M169.373 44.499C168.826 44.499 168.382 44.314 168.024 43.9608C167.682 43.6076 167.512 43.1368 167.512 42.5313V42.4136C167.512 42.01 167.597 41.6568 167.734 41.3541C167.887 41.0346 168.109 40.7991 168.382 40.631C168.656 40.4628 168.963 40.3619 169.287 40.3619C169.816 40.3619 170.226 40.5301 170.516 40.8664C170.807 41.2028 170.96 41.6905 170.96 42.3295V42.6154H168.212C168.229 43.0022 168.331 43.3217 168.57 43.574C168.792 43.8095 169.082 43.944 169.424 43.944C169.663 43.944 169.868 43.8935 170.038 43.7926C170.209 43.6917 170.363 43.5572 170.482 43.4058L170.909 43.7254C170.568 44.2467 170.055 44.499 169.373 44.499ZM170.414 39.7733V39.8069H169.834L169.27 39.1847L168.707 39.8069H168.126V39.7565L169.048 38.7474H169.475L170.414 39.7733ZM169.287 40.9169C169.014 40.9169 168.775 41.0178 168.587 41.2196C168.399 41.4214 168.28 41.7073 168.229 42.0604H170.26V42.01C170.243 41.6568 170.141 41.3877 169.97 41.2028C169.799 41.0178 169.577 40.9169 169.287 40.9169Z" fill="white"/>
<path d="M172.411 40.4291L172.428 40.9337C172.736 40.5469 173.145 40.3619 173.641 40.3619C174.494 40.3619 174.921 40.8328 174.938 41.7913V44.4317H174.238V41.7913C174.238 41.5055 174.17 41.2868 174.033 41.1523C173.897 41.0177 173.692 40.9505 173.419 40.9505C173.197 40.9505 172.992 41.0177 172.821 41.1355C172.65 41.2532 172.514 41.4045 172.428 41.6064V44.4485H171.729V40.4628H172.411V40.4291Z" fill="white"/>
<path d="M178.54 40.4291L178.557 40.9337C178.865 40.5469 179.274 40.3619 179.769 40.3619C180.623 40.3619 181.05 40.8328 181.067 41.7913V44.4317H180.367V41.7913C180.367 41.5055 180.299 41.2868 180.162 41.1523C180.026 41.0177 179.821 40.9505 179.548 40.9505C179.326 40.9505 179.121 41.0177 178.95 41.1355C178.779 41.2532 178.643 41.4045 178.557 41.6064V44.4485H177.857V40.4628H178.54V40.4291Z" fill="white"/>
<path d="M181.955 42.3968C181.955 41.7745 182.109 41.2868 182.399 40.9168C182.689 40.5469 183.082 40.3619 183.56 40.3619C184.055 40.3619 184.448 40.53 184.721 40.8832L184.755 40.4459H185.387V44.3476C185.387 44.8689 185.233 45.2726 184.926 45.5753C184.618 45.878 184.192 46.0294 183.679 46.0294C183.389 46.0294 183.099 45.9621 182.826 45.8444C182.553 45.7266 182.331 45.5585 182.177 45.3398L182.536 44.9362C182.826 45.3062 183.201 45.4744 183.628 45.4744C183.97 45.4744 184.226 45.3735 184.413 45.1885C184.601 45.0035 184.704 44.7344 184.704 44.3981V44.0617C184.431 44.3812 184.055 44.5326 183.56 44.5326C183.082 44.5326 182.706 44.3476 182.416 43.9608C182.109 43.5572 181.955 43.0358 181.955 42.3968ZM182.655 42.464C182.655 42.9181 182.74 43.2713 182.928 43.5235C183.116 43.7758 183.372 43.9104 183.713 43.9104C184.157 43.9104 184.465 43.7085 184.67 43.3217V41.5055C184.465 41.1186 184.14 40.9337 183.713 40.9337C183.372 40.9337 183.116 41.0682 182.928 41.3205C182.74 41.5895 182.655 41.9595 182.655 42.464Z" fill="white"/>
<path d="M187.128 40.9169C187.435 40.5469 187.828 40.3619 188.323 40.3619C189.177 40.3619 189.604 40.8328 189.621 41.7914V44.4317H188.921V41.7914C188.921 41.5055 188.852 41.2868 188.716 41.1523C188.579 41.0178 188.374 40.9505 188.101 40.9505C187.879 40.9505 187.674 41.0178 187.504 41.1355C187.333 41.2532 187.196 41.4046 187.111 41.6064V44.4485H186.411V38.781H187.111V40.9169H187.128Z" fill="white"/>
<path d="M190.662 39.3696C190.662 39.2519 190.696 39.1678 190.765 39.0837C190.833 38.9996 190.935 38.966 191.072 38.966C191.208 38.966 191.311 38.9996 191.379 39.0837C191.447 39.1678 191.482 39.2519 191.482 39.3696C191.482 39.4873 191.447 39.5714 191.379 39.6387C191.311 39.706 191.208 39.7564 191.072 39.7564C190.935 39.7564 190.833 39.7228 190.765 39.6387C190.696 39.5714 190.662 39.4873 190.662 39.3696ZM191.413 44.4317H190.713V40.4459H191.413V44.4317Z" fill="white"/>
<path d="M194.196 44.499C193.65 44.499 193.206 44.314 192.847 43.9608C192.506 43.6076 192.335 43.1368 192.335 42.5313V42.4136C192.335 42.01 192.42 41.6568 192.557 41.3541C192.711 41.0346 192.932 40.7991 193.206 40.631C193.479 40.4628 193.786 40.3619 194.11 40.3619C194.64 40.3619 195.049 40.5301 195.34 40.8664C195.63 41.2028 195.784 41.6905 195.784 42.3295V42.6154H193.035C193.052 43.0022 193.154 43.3218 193.393 43.574C193.615 43.8095 193.906 43.944 194.247 43.944C194.486 43.944 194.691 43.8935 194.862 43.7926C195.032 43.6917 195.186 43.5572 195.306 43.4058L195.732 43.7254C195.391 44.2467 194.879 44.499 194.196 44.499ZM195.237 39.7733V39.8069H194.657L194.093 39.1847L193.53 39.8069H192.95V39.7565L193.871 38.7474H194.298L195.237 39.7733ZM194.11 40.9169C193.837 40.9169 193.598 41.0178 193.411 41.2196C193.223 41.4214 193.103 41.7073 193.052 42.0604H195.084V42.01C195.067 41.6568 194.964 41.3877 194.793 41.2028C194.623 41.0178 194.401 40.9169 194.11 40.9169ZM193.684 45.323C193.684 45.2053 193.718 45.1212 193.786 45.0371C193.854 44.953 193.957 44.9194 194.093 44.9194C194.23 44.9194 194.332 44.953 194.401 45.0371C194.469 45.1212 194.503 45.2053 194.503 45.323C194.503 45.4408 194.469 45.5248 194.401 45.5921C194.332 45.6594 194.23 45.7098 194.093 45.7098C193.957 45.7098 193.854 45.6762 193.786 45.5921C193.718 45.5248 193.684 45.4408 193.684 45.323Z" fill="white"/>
<path d="M200 42.4641C200 43.0695 199.863 43.5572 199.573 43.9272C199.283 44.2972 198.907 44.4822 198.429 44.4822C197.934 44.4822 197.559 44.3308 197.268 44.0281V45.9453H196.568V40.4123H197.2L197.234 40.8496C197.524 40.5133 197.917 40.3283 198.412 40.3283C198.907 40.3283 199.283 40.5133 199.573 40.8664C199.863 41.2364 200 41.7241 200 42.38V42.4641ZM199.317 42.3968C199.317 41.9427 199.215 41.5896 199.027 41.3373C198.839 41.0682 198.566 40.9505 198.224 40.9505C197.798 40.9505 197.49 41.1355 197.285 41.5055V43.389C197.49 43.759 197.815 43.9272 198.241 43.9272C198.566 43.9272 198.839 43.7926 199.027 43.5404C199.215 43.2881 199.317 42.9013 199.317 42.3968Z" fill="white"/>
<path d="M12.2925 27.4124C2.91993 32.9958 -2.04806 39.3528 0.785909 43.0526C3.15894 46.1639 10.4487 46.6179 19.3092 44.7008C21.6481 44.1962 24.1064 43.5235 26.616 42.6995C28.6135 42.0436 30.6451 41.27 32.6937 40.4123C32.8986 40.3282 33.1035 40.2441 33.3254 40.1432C34.5375 39.6219 35.6984 39.0837 36.8081 38.5288C49.1 32.4408 56.202 24.6544 52.9242 20.3827C50.278 16.9183 41.5371 16.7502 31.3109 19.4746L31.2426 19.7269C38.1568 18.1965 43.8248 18.4655 45.6173 20.82C48.0245 23.9648 42.7663 29.7332 33.6156 34.4085C32.5059 34.9803 31.345 35.5352 30.1329 36.0566C26.3941 37.6879 22.6382 38.8987 19.2067 39.6555C12.3096 41.1859 6.65872 40.9 4.84908 38.5456C2.86871 35.9557 6.09534 31.5831 12.395 27.5133L12.2925 27.4124Z" fill="white"/>
<path d="M18.6258 15.4552C21.5582 15.4552 23.9353 13.1136 23.9353 10.225C23.9353 7.33643 21.5582 4.99478 18.6258 4.99478C15.6935 4.99478 13.3164 7.33643 13.3164 10.225C13.3164 13.1136 15.6935 15.4552 18.6258 15.4552Z" fill="white"/>
</g>
<defs>
<clipPath id="clip0">
<rect width="200" height="64.4444" fill="white"/>
</clipPath>
</defs>
</svg>
