<svg width="32" height="32" viewBox="0 0 32 32" fill="none" xmlns="http://www.w3.org/2000/svg">
<path d="M3.34798 8.16675H26.0146C26.8987 8.16675 27.7465 7.81556 28.3717 7.19044C28.9968 6.56532 29.348 5.71747 29.348 4.83342V3.50008C29.348 2.61603 28.9968 1.76818 28.3717 1.14306C27.7465 0.517938 26.8987 0.166748 26.0146 0.166748H3.34798C2.46393 0.166748 1.61608 0.517938 0.990959 1.14306C0.365838 1.76818 0.0146484 2.61603 0.0146484 3.50008V4.83342C0.0146484 5.71747 0.365838 6.56532 0.990959 7.19044C1.61608 7.81556 2.46393 8.16675 3.34798 8.16675ZM4.86131 4.16675C4.86105 3.87266 4.94802 3.58509 5.11122 3.34044C5.27441 3.09578 5.50651 2.90502 5.77813 2.7923C6.04976 2.67957 6.34872 2.64994 6.6372 2.70715C6.92567 2.76436 7.19069 2.90585 7.39874 3.11371C7.60679 3.32157 7.74851 3.58647 7.80598 3.87489C7.86345 4.16331 7.83409 4.4623 7.72161 4.73403C7.60913 5.00576 7.41858 5.23802 7.17407 5.40144C6.92956 5.56486 6.64207 5.65208 6.34798 5.65208C5.95392 5.65208 5.57599 5.49563 5.29722 5.21712C5.01845 4.9386 4.86167 4.56081 4.86131 4.16675ZM10.0146 4.16675C10.0144 3.8726 10.1014 3.58498 10.2646 3.3403C10.4279 3.09561 10.6601 2.90486 10.9318 2.79217C11.2035 2.67948 11.5025 2.64993 11.791 2.70725C12.0795 2.76457 12.3446 2.90619 12.5525 3.11418C12.7605 3.32218 12.9022 3.5872 12.9595 3.87571C13.0168 4.16422 12.9872 4.46325 12.8746 4.73495C12.7619 5.00666 12.5711 5.23883 12.3264 5.40209C12.0817 5.56534 11.7941 5.65235 11.5 5.65208C11.106 5.65208 10.7282 5.49559 10.4497 5.21704C10.1711 4.93848 10.0146 4.56068 10.0146 4.16675Z" fill="#F2781C"/>
<path d="M22.6814 12.8333C24.6897 12.8317 26.6543 13.419 28.3321 14.5227C28.4311 14.5875 28.5458 14.6244 28.664 14.6294C28.7823 14.6345 28.8997 14.6075 29.0038 14.5514C29.108 14.4953 29.1951 14.4121 29.256 14.3106C29.3168 14.2091 29.3491 14.093 29.3494 13.9747V12.8413C29.3484 11.9569 28.9971 11.1088 28.3725 10.4826C27.7478 9.85648 26.9006 9.50317 26.0161 9.5H3.34945C2.46539 9.5 1.61755 9.85119 0.992424 10.4763C0.367303 11.1014 0.0161133 11.9493 0.0161133 12.8333V14.1667C0.0161133 15.0507 0.367303 15.8986 0.992424 16.5237C1.61755 17.1488 2.46539 17.5 3.34945 17.5H13.7094C13.8145 17.499 13.9177 17.4728 14.0106 17.4237C14.1034 17.3745 14.183 17.3037 14.2428 17.2173C15.1948 15.8636 16.4585 14.7586 17.9271 13.9956C19.3958 13.2326 21.0264 12.834 22.6814 12.8333ZM12.9868 13.5C12.9868 13.794 12.8996 14.0815 12.7362 14.3259C12.5729 14.5704 12.3407 14.761 12.069 14.8735C11.7974 14.986 11.4985 15.0155 11.2101 14.9581C10.9217 14.9007 10.6568 14.7591 10.4489 14.5512C10.241 14.3433 10.0994 14.0784 10.042 13.79C9.98465 13.5016 10.0141 13.2027 10.1266 12.9311C10.2391 12.6594 10.4297 12.4272 10.6742 12.2639C10.9186 12.1005 11.2061 12.0133 11.5001 12.0133C11.8942 12.0133 12.2721 12.1698 12.5509 12.4483C12.8296 12.7268 12.9864 13.1046 12.9868 13.4987V13.5ZM7.83345 13.5C7.83345 13.7941 7.74622 14.0816 7.5828 14.3261C7.41939 14.5706 7.18712 14.7611 6.91539 14.8736C6.64366 14.9861 6.34468 15.0155 6.05625 14.958C5.76783 14.9005 5.50294 14.7588 5.29508 14.5508C5.08721 14.3427 4.94573 14.0777 4.88852 13.7892C4.8313 13.5007 4.86094 13.2018 4.97366 12.9302C5.08639 12.6585 5.27715 12.4264 5.5218 12.2632C5.76646 12.1 6.05402 12.0131 6.34811 12.0133C6.74194 12.0137 7.11953 12.1703 7.39801 12.4488C7.67649 12.7272 7.83309 13.1048 7.83345 13.4987V13.5Z" fill="#F2781C"/>
<path d="M3.34798 26.8335H12.108C12.2136 26.8334 12.3176 26.8083 12.4116 26.7601C12.5055 26.7119 12.5867 26.6422 12.6484 26.5565C12.7101 26.4708 12.7506 26.3717 12.7665 26.2674C12.7824 26.163 12.7733 26.0563 12.74 25.9562C12.1512 23.9001 12.2268 21.7107 12.956 19.7002C12.9874 19.6004 12.9948 19.4947 12.9778 19.3915C12.9607 19.2884 12.9197 19.1906 12.8579 19.1063C12.7961 19.0219 12.7154 18.9533 12.6221 18.9059C12.5289 18.8585 12.4259 18.8337 12.3213 18.8335H3.34798C2.46393 18.8335 1.61608 19.1847 0.990959 19.8098C0.365838 20.4349 0.0146484 21.2828 0.0146484 22.1668V23.5002C0.0146484 24.3842 0.365838 25.2321 0.990959 25.8572C1.61608 26.4823 2.46393 26.8335 3.34798 26.8335ZM4.86131 22.8335C4.86131 22.5395 4.94851 22.252 5.11186 22.0075C5.27522 21.7631 5.50741 21.5725 5.77906 21.46C6.05071 21.3475 6.34963 21.318 6.63802 21.3754C6.9264 21.4328 7.1913 21.5744 7.39921 21.7823C7.60713 21.9902 7.74872 22.2551 7.80608 22.5435C7.86345 22.8318 7.834 23.1308 7.72148 23.4024C7.60896 23.6741 7.41841 23.9063 7.17393 24.0696C6.92945 24.233 6.64202 24.3202 6.34798 24.3202C6.15264 24.3202 5.95921 24.2817 5.77875 24.2069C5.59829 24.1321 5.43434 24.0224 5.29628 23.8843C5.15821 23.7461 5.04873 23.582 4.9741 23.4015C4.89946 23.221 4.86114 23.0275 4.86131 22.8322V22.8335Z" fill="#F2781C"/>
<path d="M29.1175 17.12C29.0563 17.1814 28.9737 17.2165 28.8871 17.218C28.8005 17.2195 28.7167 17.1872 28.6535 17.128C27.4439 15.9954 25.9295 15.2411 24.2968 14.9581C22.6641 14.6751 20.9842 14.8756 19.464 15.5351C17.9437 16.1945 16.6495 17.2841 15.7405 18.6696C14.8316 20.0552 14.3476 21.6763 14.3481 23.3334C14.3478 25.0956 14.8952 26.8144 15.9147 28.2518C16.9342 29.6893 18.3753 30.7742 20.0386 31.3565C21.7019 31.9388 23.505 31.9897 25.1985 31.502C26.8919 31.0144 28.3919 30.0124 29.4908 28.6347C29.7008 28.3576 29.7942 28.0094 29.7511 27.6644C29.7081 27.3194 29.5319 27.0049 29.2603 26.7878C28.9887 26.5708 28.643 26.4685 28.297 26.5026C27.9511 26.5368 27.6321 26.7047 27.4081 26.9707C26.6803 27.8841 25.6949 28.5579 24.5797 28.9048C23.4644 29.2517 22.2707 29.2558 21.1532 28.9166C20.0356 28.5773 19.0456 27.9103 18.3115 27.0019C17.5773 26.0936 17.1328 24.9857 17.0355 23.8218C16.9383 22.6579 17.1927 21.4916 17.7658 20.474C18.339 19.4564 19.2045 18.6343 20.2503 18.1142C21.296 17.5941 22.4738 17.4 23.6312 17.557C24.7885 17.714 25.8721 18.2148 26.7415 18.9947C26.775 19.0251 26.802 19.062 26.8208 19.1032C26.8396 19.1443 26.8499 19.1889 26.851 19.2341C26.8521 19.2794 26.8441 19.3244 26.8273 19.3664C26.8105 19.4084 26.7854 19.4466 26.7535 19.4787L24.9055 21.3334C24.8125 21.4266 24.7493 21.5452 24.7237 21.6744C24.6981 21.8035 24.7113 21.9373 24.7616 22.059C24.812 22.1806 24.8972 22.2846 25.0065 22.3579C25.1159 22.4311 25.2445 22.4704 25.3761 22.4707H31.3188C31.4956 22.4707 31.6652 22.4005 31.7902 22.2754C31.9152 22.1504 31.9855 21.9808 31.9855 21.804V15.8667C31.9852 15.7351 31.9459 15.6064 31.8727 15.4971C31.7994 15.3877 31.6954 15.3025 31.5737 15.2522C31.4521 15.2018 31.3183 15.1886 31.1892 15.2142C31.06 15.2398 30.9414 15.3031 30.8481 15.396L30.1708 16.0734L29.1175 17.12Z" fill="#F2781C"/>
</svg>
