<svg width="32" height="32" viewBox="0 0 32 32" fill="none" xmlns="http://www.w3.org/2000/svg">
<g clip-path="url(#clip0)">
<path d="M15.1133 16.5587C15.1736 16.4859 15.2178 16.401 15.2428 16.3098C15.2678 16.2185 15.2731 16.123 15.2584 16.0295C15.2436 15.9361 15.2091 15.8468 15.1572 15.7677C15.1053 15.6886 15.0371 15.6215 14.9573 15.5707C13.6551 14.737 12.1769 14.2176 10.6394 14.0537C9.1019 13.8898 7.54737 14.0859 6.09873 14.6264C4.65009 15.1669 3.34707 16.0371 2.29274 17.1681C1.2384 18.299 0.46166 19.6598 0.023944 21.1427C-0.00585182 21.2426 -0.0118393 21.348 0.00646178 21.4505C0.0247629 21.5531 0.0668432 21.6499 0.129328 21.7333C0.191812 21.8166 0.272961 21.8842 0.366267 21.9305C0.459572 21.9769 0.562437 22.0007 0.666611 22.0001H12.1866C12.3428 22.0001 12.4941 21.9452 12.614 21.845C12.7339 21.7449 12.8148 21.6058 12.8426 21.4521C13.1654 19.6526 13.9476 17.9671 15.1133 16.5587Z" fill="#F2781C"/>
<path d="M9.33333 12.6667C12.8311 12.6667 15.6667 9.83114 15.6667 6.33333C15.6667 2.83553 12.8311 0 9.33333 0C5.83553 0 3 2.83553 3 6.33333C3 9.83114 5.83553 12.6667 9.33333 12.6667Z" fill="#F2781C"/>
<path d="M23.3332 14.6667C21.6191 14.6667 19.9435 15.175 18.5182 16.1273C17.093 17.0797 15.9822 18.4332 15.3262 20.0168C14.6703 21.6005 14.4986 23.343 14.833 25.0242C15.1674 26.7054 15.9929 28.2496 17.2049 29.4617C18.417 30.6737 19.9612 31.4991 21.6424 31.8336C23.3236 32.168 25.0661 31.9963 26.6498 31.3404C28.2334 30.6844 29.5869 29.5736 30.5392 28.1484C31.4915 26.7231 31.9998 25.0475 31.9998 23.3334C31.997 21.0357 31.083 18.833 29.4583 17.2083C27.8336 15.5836 25.6308 14.6696 23.3332 14.6667ZM22.3332 28.6667C22.3332 28.5783 22.2981 28.4936 22.2355 28.431C22.173 28.3685 22.0882 28.3334 21.9998 28.3334H21.3332C21.068 28.3334 20.8136 28.2281 20.6261 28.0405C20.4385 27.853 20.3332 27.5986 20.3332 27.3334C20.3332 27.0682 20.4385 26.8138 20.6261 26.6263C20.8136 26.4388 21.068 26.3334 21.3332 26.3334H24.0438C24.2269 26.333 24.4041 26.2689 24.5452 26.1521C24.6862 26.0354 24.7822 25.8733 24.8169 25.6935C24.8516 25.5138 24.8227 25.3275 24.7351 25.1668C24.6476 25.006 24.5069 24.8806 24.3372 24.8121L21.5865 23.7121C21.0294 23.4907 20.5587 23.0952 20.2447 22.5845C19.9307 22.0738 19.7903 21.4753 19.8442 20.8782C19.8982 20.2811 20.1438 19.7175 20.5442 19.2714C20.9447 18.8253 21.4787 18.5206 22.0665 18.4027C22.1419 18.3876 22.2097 18.3468 22.2584 18.2872C22.307 18.2276 22.3334 18.153 22.3332 18.0761V17.6667C22.3332 17.4015 22.4385 17.1472 22.6261 16.9596C22.8136 16.7721 23.068 16.6667 23.3332 16.6667C23.5984 16.6667 23.8527 16.7721 24.0403 16.9596C24.2278 17.1472 24.3332 17.4015 24.3332 17.6667V18.0001C24.3332 18.0885 24.3683 18.1733 24.4308 18.2358C24.4933 18.2983 24.5781 18.3334 24.6665 18.3334H25.3332C25.5984 18.3334 25.8527 18.4388 26.0403 18.6263C26.2278 18.8138 26.3332 19.0682 26.3332 19.3334C26.3332 19.5986 26.2278 19.853 26.0403 20.0405C25.8527 20.2281 25.5984 20.3334 25.3332 20.3334H22.6225C22.4394 20.3339 22.2622 20.398 22.1212 20.5147C21.9802 20.6314 21.8841 20.7935 21.8494 20.9733C21.8148 21.1531 21.8437 21.3393 21.9312 21.5001C22.0187 21.6609 22.1594 21.7863 22.3292 21.8547L25.0798 22.9547C25.637 23.1761 26.1076 23.5716 26.4216 24.0823C26.7356 24.593 26.8761 25.1916 26.8221 25.7886C26.7681 26.3857 26.5226 26.9493 26.1221 27.3954C25.7216 27.8415 25.1876 28.1462 24.5998 28.2641C24.5244 28.2792 24.4566 28.3201 24.408 28.3796C24.3593 28.4392 24.3329 28.5138 24.3332 28.5907V29.0001C24.3332 29.2653 24.2278 29.5197 24.0403 29.7072C23.8527 29.8947 23.5984 30.0001 23.3332 30.0001C23.068 30.0001 22.8136 29.8947 22.6261 29.7072C22.4385 29.5197 22.3332 29.2653 22.3332 29.0001V28.6667Z" fill="#F2781C"/>
</g>
<defs>
<clipPath id="clip0">
<rect width="32" height="32" fill="white"/>
</clipPath>
</defs>
</svg>
