<svg width="20" height="20" viewBox="0 0 20 20" fill="none" xmlns="http://www.w3.org/2000/svg">
<g clip-path="url(#clip0)">
<path d="M3.10925 4.16653C3.33052 4.33535 3.64662 4.29286 3.81551 4.07172C5.30177 2.12444 7.55598 1.00774 10.0002 1.00774C12.4445 1.00774 14.6987 2.12451 16.1849 4.07172C16.2841 4.20162 16.4341 4.26983 16.5859 4.26983C16.6924 4.26983 16.7999 4.23616 16.8912 4.16653C17.1123 3.99764 17.1548 3.68148 16.986 3.46027C15.3074 1.26121 12.7612 0 10.0002 0C7.23921 0 4.69302 1.26121 3.0145 3.46027C2.84568 3.68148 2.8881 3.99764 3.10925 4.16653Z" fill="#F2781C"/>
<path d="M15.3564 6.85428C15.3564 7.72196 16.0624 8.42795 16.9301 8.42795C17.7978 8.42795 18.5038 7.72196 18.5038 6.85428C18.5038 5.9866 17.7978 5.28061 16.9301 5.28061C16.0624 5.28061 15.3564 5.98654 15.3564 6.85428Z" fill="#F2781C"/>
<path d="M18.5405 8.95017C18.5369 8.94895 18.1404 8.82727 18.1404 8.82727C17.9968 8.78343 17.8409 8.81043 17.7207 8.9004L16.93 9.49239L16.1394 8.9004C16.0191 8.81037 15.8631 8.78336 15.7197 8.82727C15.7197 8.82727 15.3232 8.94895 15.3195 8.95017C14.6815 9.16289 14.2529 9.75757 14.2529 10.43V12.8091C14.2529 12.9009 14.2797 12.9906 14.3302 13.0673L15.1281 14.2815V17.4702C15.1281 17.7299 15.3386 17.9404 15.5983 17.9404H18.2618C18.5216 17.9404 18.7321 17.7299 18.7321 17.4702V14.2815L19.5299 13.0673C19.5803 12.9906 19.6072 12.9008 19.6072 12.8091V10.43C19.6072 9.75757 19.1785 9.16289 18.5405 8.95017Z" fill="#F2781C"/>
<path d="M3.07081 8.42795C3.93848 8.42795 4.64448 7.72196 4.64448 6.85428C4.64448 5.9866 3.93848 5.28061 3.07081 5.28061C2.20313 5.28061 1.49707 5.98654 1.49707 6.85428C1.49707 7.72202 2.20306 8.42795 3.07081 8.42795Z" fill="#F2781C"/>
<path d="M4.68116 8.95017C4.67753 8.94895 4.28103 8.82727 4.28103 8.82727C4.13739 8.78343 3.98157 8.81043 3.8613 8.9004L3.07066 9.49239L2.28002 8.9004C2.15982 8.81037 2.00372 8.78336 1.86029 8.82727C1.86029 8.82727 1.46379 8.94895 1.46015 8.95017C0.822174 9.16289 0.393555 9.75757 0.393555 10.43V12.8091C0.393555 12.9009 0.420356 12.9906 0.470861 13.0673L1.26871 14.2815V17.4702C1.26871 17.7299 1.47921 17.9404 1.73894 17.9404H4.40238C4.66211 17.9404 4.87261 17.7299 4.87261 17.4702V14.2815L5.67046 13.0673C5.72089 12.9906 5.74776 12.9008 5.74776 12.8091V10.43C5.74776 9.75757 5.31908 9.16289 4.68116 8.95017Z" fill="#F2781C"/>
<path d="M12.0302 4.63642C12.0302 3.51723 11.1197 2.60666 10.0005 2.60666C8.88128 2.60666 7.9707 3.51723 7.9707 4.63642C7.9707 5.75568 8.88128 6.66619 10.0005 6.66619C11.1197 6.66619 12.0302 5.75568 12.0302 4.63642Z" fill="#F2781C"/>
<path d="M12.2293 7.64991L12.2259 7.64883L11.6466 7.47106C11.5552 7.44298 11.4576 7.49133 11.4247 7.58149L10.2065 10.9239C10.1362 11.1167 9.86354 11.1167 9.79324 10.9239L8.57506 7.58149C8.54853 7.5087 8.47984 7.46304 8.40617 7.46304C8.38873 7.46304 7.77452 7.64857 7.77452 7.64857C7.03445 7.89516 6.54004 8.58123 6.54004 9.35698V12.8927C6.54004 12.9278 6.55034 12.9622 6.5696 12.9915L7.84071 14.9258V19.8201C7.84071 19.9195 7.92125 20 8.02065 20H11.9791C12.0785 20 12.159 19.9195 12.159 19.8201V14.9258L13.4301 12.9915C13.4494 12.9622 13.4597 12.9278 13.4597 12.8927V9.34769C13.4596 8.5753 12.9633 7.89038 12.2293 7.64991Z" fill="#F2781C"/>
<path d="M10.4764 7.57952C10.4261 7.52471 10.3525 7.4971 10.278 7.4971H9.7228C9.64839 7.4971 9.57479 7.52471 9.52442 7.57952C9.4465 7.66444 9.43519 7.78707 9.49048 7.88289L9.78724 8.3303L9.64832 9.50235L9.92192 10.2302C9.94859 10.3034 10.0521 10.3034 10.0788 10.2302L10.3524 9.50235L10.2135 8.3303L10.5103 7.88289C10.5656 7.78707 10.5543 7.66444 10.4764 7.57952Z" fill="#F2781C"/>
</g>
<defs>
<clipPath id="clip0">
<rect width="20" height="20" fill="white"/>
</clipPath>
</defs>
</svg>
