<svg width="20" height="20" viewBox="0 0 20 20" fill="none" xmlns="http://www.w3.org/2000/svg">
<path d="M16.1135 14.0627C15.9657 13.7093 15.61 13.4829 15.2707 13.3438L12.9765 12.2874L11.8742 11.3578L10.1031 13.1193H10.1018L10.8662 18.2288C10.8689 18.2463 10.8643 18.2642 10.8539 18.2786L10.0548 19.3722C10.0421 19.3899 10.0218 19.4 10.0002 19.4C9.97857 19.4 9.9583 19.3897 9.9456 19.3722L9.14651 18.2786C9.13597 18.2642 9.13156 18.2462 9.13422 18.2288L9.89849 13.1193H9.89732L8.12633 11.3578L7.02409 12.2874L4.72976 13.3438C4.3903 13.4829 4.05674 13.6943 3.88703 14.0627C3.88703 14.0627 1.39317 20 2.74583 20H17.2549C18.6074 20.0001 16.1135 14.0627 16.1135 14.0627Z" fill="#F2781C"/>
<path d="M16.273 5.92213C16.3075 5.91839 16.3386 5.9019 16.36 5.8752C16.3817 5.84853 16.3914 5.81417 16.3876 5.77998C16.3619 5.56069 16.3361 5.34184 16.3107 5.12255L16.2572 4.66365C16.2491 4.59514 16.1878 4.54533 16.1188 4.5515L16.0195 4.55163L16.0214 3.01121L16.0734 2.99234L16.2465 2.92982C16.3932 2.87677 16.4908 2.73773 16.4908 2.58194C16.4908 2.42611 16.3932 2.28703 16.2465 2.23392L10.1261 0.0220579C10.0447 -0.00735262 9.95571 -0.00735262 9.87451 0.0220579L3.75397 2.23392C3.60741 2.28703 3.50977 2.42611 3.50977 2.58194C3.50977 2.73773 3.60741 2.87677 3.75397 2.92982L6.01655 3.74751C5.85684 4.25172 5.78415 4.82903 5.79068 5.47178C5.83049 9.13805 7.95877 11.3243 9.92806 11.3243C11.8743 11.3243 14.0257 9.13805 14.0653 5.47178C14.0719 4.8488 14.0032 4.28766 13.8538 3.79462L15.4989 3.2001L15.5024 4.55222L15.403 4.55217C15.334 4.54614 15.2726 4.59577 15.2647 4.66482L15.1361 5.78124C15.1322 5.81525 15.1422 5.84925 15.1638 5.87601C15.1853 5.90262 15.2167 5.91969 15.2508 5.92253L16.273 5.92213ZM9.92833 10.434C8.21018 10.434 7.02461 8.4213 6.78546 6.40927C6.56432 4.54853 9.25531 4.46192 9.41159 5.61523C9.45974 5.96978 9.05263 6.34959 9.0988 6.49601C9.32652 7.21884 13.097 4.13673 13.0712 6.40837C13.0531 8.01225 11.5654 10.434 9.92833 10.434Z" fill="#F2781C"/>
</svg>
