<svg width="20" height="20" viewBox="0 0 20 20" fill="none" xmlns="http://www.w3.org/2000/svg">
<path d="M13.3984 13.9465L15.7552 12.3152L13.3984 11.0461V13.9465Z" fill="#F2781C"/>
<path d="M0 6.66666V16.7057C0 17.675 0.788555 18.4635 1.75781 18.4635H18.2422C19.2114 18.4635 20 17.675 20 16.7057V6.66666H0ZM6.875 15.651H3.125C2.80141 15.651 2.53906 15.3887 2.53906 15.0651C2.53906 14.7415 2.80141 14.4792 3.125 14.4792H6.875C7.19859 14.4792 7.46094 14.7415 7.46094 15.0651C7.46094 15.3887 7.19859 15.651 6.875 15.651ZM6.875 13.151H3.125C2.80141 13.151 2.53906 12.8887 2.53906 12.5651C2.53906 12.2415 2.80141 11.9792 3.125 11.9792H6.875C7.19859 11.9792 7.46094 12.2415 7.46094 12.5651C7.46094 12.8887 7.19859 13.151 6.875 13.151ZM6.875 10.651H3.125C2.80141 10.651 2.53906 10.3887 2.53906 10.0651C2.53906 9.7415 2.80141 9.47916 3.125 9.47916H6.875C7.19859 9.47916 7.46094 9.7415 7.46094 10.0651C7.46094 10.3887 7.19859 10.651 6.875 10.651ZM16.4223 13.2786L14.0655 14.9103C13.8652 15.0489 13.6325 15.1192 13.3988 15.1192C13.2129 15.1192 13.0262 15.0747 12.8546 14.9848C12.4672 14.7819 12.2266 14.3841 12.2266 13.9468V11.0461C12.2266 10.6297 12.44 10.2536 12.7975 10.04C13.1551 9.8265 13.5874 9.81689 13.954 10.0143L16.3108 11.2834C16.6727 11.4782 16.9024 11.8395 16.9253 12.2499C16.9482 12.6601 16.7602 13.0447 16.4223 13.2786Z" fill="#F2781C"/>
<path d="M18.2422 1.66666H1.75781C0.788555 1.66666 0 2.45521 0 3.42447V5.49478H20V3.42447C20 2.45521 19.2114 1.66666 18.2422 1.66666ZM3.125 4.16666C2.80141 4.16666 2.53906 3.90431 2.53906 3.58072C2.53906 3.25713 2.80141 2.99478 3.125 2.99478C3.44859 2.99478 3.71094 3.25713 3.71094 3.58072C3.71094 3.90431 3.44859 4.16666 3.125 4.16666ZM5.625 4.1667C5.30141 4.1667 5.03906 3.90435 5.03906 3.58076C5.03906 3.25716 5.30141 2.99482 5.625 2.99482C5.94859 2.99482 6.21094 3.25716 6.21094 3.58076C6.21094 3.90435 5.94859 4.1667 5.625 4.1667ZM8.125 4.16666C7.80141 4.16666 7.53906 3.90431 7.53906 3.58072C7.53906 3.25713 7.80141 2.99478 8.125 2.99478C8.44859 2.99478 8.71094 3.25713 8.71094 3.58072C8.71094 3.90431 8.44859 4.16666 8.125 4.16666Z" fill="#F2781C"/>
</svg>
