<svg width="32" height="32" viewBox="0 0 32 32" fill="none" xmlns="http://www.w3.org/2000/svg">
<circle cx="16" cy="16" r="16" fill="#185482"/>
<g clip-path="url(#clip0)">
<path d="M23.6462 11.9528L23.6662 12.0835C23.4729 11.3975 22.9509 10.8682 22.2875 10.6755L22.2735 10.6722C21.0262 10.3335 16.0069 10.3335 16.0069 10.3335C16.0069 10.3335 11.0002 10.3268 9.7402 10.6722C9.0642 10.8682 8.54153 11.3975 8.35153 12.0695L8.3482 12.0835C7.8822 14.5175 7.87886 17.4422 8.36886 20.0482L8.3482 19.9162C8.54153 20.6022 9.06353 21.1315 9.72686 21.3242L9.74086 21.3275C10.9869 21.6668 16.0075 21.6668 16.0075 21.6668C16.0075 21.6668 21.0135 21.6668 22.2742 21.3275C22.9509 21.1315 23.4735 20.6022 23.6635 19.9302L23.6669 19.9162C23.8789 18.7842 24.0002 17.4815 24.0002 16.1508C24.0002 16.1022 24.0002 16.0528 23.9995 16.0035C24.0002 15.9582 24.0002 15.9042 24.0002 15.8502C24.0002 14.5188 23.8789 13.2162 23.6462 11.9528ZM14.4055 18.4342V13.5722L18.5829 16.0068L14.4055 18.4342Z" fill="white"/>
</g>
<defs>
<clipPath id="clip0">
<rect width="16" height="16" fill="white" transform="translate(8 8)"/>
</clipPath>
</defs>
</svg>
