<svg width="65" height="160" viewBox="0 0 65 160" fill="none" xmlns="http://www.w3.org/2000/svg">
<path opacity="0.1" d="M36.8857 119.483L36.8857 143.741L52.1348 143.741L52.1348 115.089L64 115.089L64 159.166L0.0156248 159.166L0.0156229 115.001L11.9248 115.001L11.9248 143.741L25.416 143.741L25.416 119.483L36.8857 119.483ZM64 108.805L0.0156226 108.805L0.0156217 88.1943C0.0156214 82.54 1.30468 77.457 3.88281 72.9453C6.43164 68.4336 10.0498 64.918 14.7373 62.3984C19.3955 59.8496 24.625 58.5605 30.4258 58.5312L33.3701 58.5312C39.2295 58.5312 44.4883 59.7764 49.1465 62.2666C53.7754 64.7275 57.4082 68.2139 60.0449 72.7256C62.6523 77.208 63.9707 82.2178 64 87.7549L64 108.805ZM11.9248 93.3799L52.1348 93.3799L52.1348 88.0186C52.1348 83.5947 50.5674 80.1963 47.4326 77.8232C44.2686 75.4502 39.5811 74.2637 33.3701 74.2637L30.6016 74.2637C24.4199 74.2637 19.7617 75.4502 16.6269 77.8232C13.4922 80.1963 11.9248 83.6533 11.9248 88.1943L11.9248 93.3799ZM0.0156179 0.435546L41.8955 0.435544C46.6416 0.435544 50.7578 1.44629 54.2441 3.46777C57.7012 5.48925 60.3379 8.38964 62.1543 12.1689C63.9707 15.9482 64.8789 20.416 64.8789 25.5723C64.8789 33.3652 62.8574 39.5029 58.8144 43.9853C54.7715 48.4678 49.2344 50.7529 42.2031 50.8408L0.0156201 50.8408L0.0156194 35.3281L42.5107 35.3281C49.5127 35.1523 53.0137 31.9004 53.0137 25.5723C53.0137 22.3789 52.1348 19.9619 50.3769 18.3213C48.6191 16.6807 45.7627 15.8603 41.8076 15.8603L0.0156185 15.8604L0.0156179 0.435546Z" fill="black"/>
</svg>
