<svg width="202" height="156" viewBox="0 0 202 156" fill="none" xmlns="http://www.w3.org/2000/svg">
<g clip-path="url(#clip0)">
<path d="M168.103 46.1933L153.17 51.5367C152.503 51.1793 151.757 50.9948 151 51C149.13 51.0095 147.443 52.1276 146.707 53.8467L134.667 58.14V48.6667C134.667 44.7933 120.037 41.6667 102 41.6667C83.9633 41.6667 69.3333 44.7933 69.3333 48.6667V58.14L35.8966 46.1933C34.9738 45.8584 34.3594 44.9817 34.3594 44C34.3594 43.0183 34.9738 42.1416 35.8966 41.8067L101.183 18.4733C101.712 18.2867 102.288 18.2867 102.817 18.4733L168.103 41.8067C169.026 42.1416 169.641 43.0183 169.641 44C169.641 44.9817 169.026 45.8584 168.103 46.1933Z" fill="#E8FBB6"/>
<path d="M95.0006 41.6667C76.964 41.6667 62.334 44.7933 62.334 48.6667V55.6387L69.334 58.14V48.6667C69.334 45.0477 82.109 42.082 98.5006 41.7087C97.3511 41.6807 96.1844 41.6667 95.0006 41.6667Z" fill="#C7E27F"/>
<path d="M168.103 41.8067L102.817 18.4733C102.288 18.2867 101.712 18.2867 101.183 18.4733L98.5 19.4323L161.103 41.8067C162.026 42.1416 162.641 43.0183 162.641 44C162.641 44.9817 162.026 45.8584 161.103 46.1933L146.17 51.5367C145.503 51.1793 144.757 50.9948 144 51C142.13 51.0095 140.443 52.1276 139.707 53.8467L134.667 55.6433V58.14L146.707 53.8467C147.443 52.1276 149.13 51.0095 151 51C151.757 50.9948 152.503 51.1793 153.17 51.5367L168.103 46.1933C169.026 45.8584 169.641 44.9817 169.641 44C169.641 43.0183 169.026 42.1416 168.103 41.8067Z" fill="#D9F68C"/>
<path d="M43.6673 114C43.6673 126.32 41.754 136.423 39.3273 137.263L39.0007 137.333C36.434 137.333 34.334 126.88 34.334 114C34.334 101.12 36.434 90.6667 39.0007 90.6667C39.0931 90.6872 39.1865 90.7028 39.2807 90.7133H39.304C41.7307 91.53 43.6673 101.633 43.6673 114Z" fill="#E8EDFC"/>
<path d="M43.6673 114C43.6673 126.32 41.754 136.423 39.3273 137.263L39.0007 137.333C36.434 137.333 34.334 126.88 34.334 114C34.334 101.12 36.434 90.6667 39.0007 90.6667C39.0931 90.6872 39.1865 90.7028 39.2807 90.7133H39.304C41.7307 91.53 43.6673 101.633 43.6673 114Z" fill="#E8EDFC"/>
<path d="M169.666 114C169.666 126.88 167.566 137.333 165 137.333C149.34 134.831 133.532 133.365 117.68 132.947L116.536 130.193C119.761 124.467 118.556 117.268 113.643 112.903C113.829 106.911 112.96 100.932 111.076 95.24C129.137 95.0157 147.159 93.4873 165 90.6667C167.566 90.6667 169.666 101.12 169.666 114Z" fill="#E8FBB6"/>
<path d="M164.999 90.6667C164.999 90.6667 162.969 91.033 159.262 91.5603C161.219 94.323 162.666 103.316 162.666 114C162.666 124.684 161.219 133.675 159.262 136.44C162.962 136.965 164.999 137.333 164.999 137.333C167.566 137.333 169.666 126.88 169.666 114C169.666 101.12 167.566 90.6667 164.999 90.6667Z" fill="#D9F68C"/>
<path d="M92.6427 115.633C89.7609 120.008 89.5628 125.626 92.1294 130.193L91.0327 132.807C73.7156 133.109 56.4396 134.598 39.3261 137.263C41.7527 136.423 43.6661 126.32 43.6661 114C43.6661 101.633 41.7294 91.53 39.3027 90.7133C56.0973 93.3599 73.0539 94.849 90.0527 95.17C92.0394 101.241 92.9244 107.618 92.6661 114C92.6661 114.56 92.6661 115.097 92.6427 115.633Z" fill="#E8FBB6"/>
<path d="M92.6661 114C92.9244 107.618 92.0394 101.241 90.0527 95.17C73.0539 94.849 56.0973 93.3599 39.3027 90.7133C39.8315 90.9727 40.2549 91.4061 40.5021 91.9407C54.6203 93.7513 68.8229 94.8292 83.0527 95.17C85.0394 101.241 85.9244 107.618 85.6661 114C85.6661 114.56 85.6661 115.097 85.6427 115.633C82.7609 120.008 82.5628 125.626 85.1294 130.193L84.0327 132.807C69.4772 133.127 54.9486 134.211 40.5067 136.055C40.2609 136.579 39.8448 137.005 39.3261 137.263C56.4396 134.598 73.7156 133.109 91.0327 132.807L92.1294 130.193C89.5628 125.626 89.7609 120.008 92.6427 115.633C92.6661 115.097 92.6661 114.56 92.6661 114Z" fill="#D9F68C"/>
<path d="M113.645 112.903C111.099 110.587 107.776 109.313 104.335 109.333C99.6275 109.338 95.2368 111.704 92.6447 115.633C92.668 115.097 92.668 114.56 92.668 114C92.9264 107.618 92.0413 101.241 90.0547 95.17C93.8814 95.2867 97.8714 95.3333 102.001 95.3333C105.105 95.3333 108.138 95.31 111.078 95.24C112.962 100.932 113.831 106.911 113.645 112.903Z" fill="#E8FBB6"/>
<path d="M106.545 109.539C109.191 109.938 111.661 111.108 113.645 112.903C113.831 106.911 112.962 100.932 111.079 95.24C108.813 95.2937 106.477 95.3147 104.111 95.324C105.68 99.9011 106.501 104.701 106.545 109.539Z" fill="#D9F68C"/>
<path d="M95.0014 95.3334C96.378 95.3334 97.7337 95.3334 99.08 95.3147C95.993 95.296 92.962 95.2587 90.0547 95.17C90.0734 95.2097 90.0874 95.2633 90.106 95.303C91.7207 95.3193 93.34 95.3334 95.0014 95.3334Z" fill="#CAD9FC"/>
<path d="M118.334 123.333C118.334 131.065 112.066 137.333 104.334 137.333C96.602 137.333 90.334 131.065 90.334 123.333C90.334 115.601 96.602 109.333 104.334 109.333C107.775 109.313 111.098 110.587 113.644 112.903C116.63 115.547 118.338 119.345 118.334 123.333Z" fill="#D9F68C"/>
<path d="M113.644 112.903C111.098 110.587 107.775 109.313 104.334 109.333C103.125 109.333 101.921 109.49 100.752 109.8C102.943 110.329 104.968 111.396 106.644 112.903C110.498 116.335 112.147 121.613 110.931 126.629C109.715 131.645 105.832 135.581 100.834 136.867C107.081 138.484 113.623 135.615 116.665 129.924C119.707 124.233 118.458 117.2 113.644 112.903Z" fill="#E8FBB6"/>
<path d="M104.334 137.333L98.1269 152.197C97.7818 153.078 96.9384 153.664 95.9921 153.679C95.0457 153.694 94.1838 153.136 93.8102 152.267L92.1069 148.347L88.1869 150.027C87.3247 150.405 86.3194 150.223 85.6436 149.568C84.9677 148.913 84.7556 147.913 85.1069 147.04L91.0336 132.807L92.1302 130.193C94.6092 134.603 99.2745 137.333 104.334 137.333Z" fill="#E8FBB6"/>
<path d="M85.1065 148.347L84.9922 148.396C85.0894 148.833 85.3106 149.233 85.6292 149.548L85.1065 148.347Z" fill="#CAD9FC"/>
<path d="M92.13 130.193L91.0333 132.807L90.0137 135.254C92.2129 136.614 94.7476 137.334 97.3333 137.333L92.4333 149.084L93.81 152.267C94.1835 153.136 95.0454 153.694 95.9918 153.679C96.9382 153.664 97.7815 153.078 98.1267 152.197L104.333 137.333C99.2743 137.333 94.6089 134.603 92.13 130.193Z" fill="#C7E27F"/>
<path d="M120.481 150.027L116.561 148.347L114.857 152.267C114.484 153.136 113.622 153.694 112.676 153.679C111.729 153.664 110.886 153.078 110.541 152.197L104.334 137.333C109.393 137.333 114.058 134.603 116.537 130.193L117.681 132.947L123.561 147.04C123.912 147.913 123.7 148.913 123.024 149.568C122.348 150.223 121.343 150.405 120.481 150.027Z" fill="#D9F68C"/>
<path d="M123.56 147.04L117.68 132.947L116.537 130.193C115.36 132.271 113.674 134.015 111.637 135.261L116.56 147.04C116.734 147.47 116.773 147.943 116.674 148.396L120.48 150.029C121.343 150.408 122.349 150.226 123.025 149.57C123.701 148.914 123.913 147.914 123.56 147.04Z" fill="#C7E27F"/>
<path d="M102.001 81.3333C120.042 81.3333 134.667 78.1993 134.667 74.3333C134.667 70.4674 120.042 67.3333 102.001 67.3333C83.9594 67.3333 69.334 70.4674 69.334 74.3333C69.334 78.1993 83.9594 81.3333 102.001 81.3333Z" fill="#C7E27F"/>
<path d="M134.667 48.6667V74.3333C134.667 70.46 120.037 67.3333 102.001 67.3333C83.964 67.3333 69.334 70.46 69.334 74.3333V48.6667C69.334 44.7933 83.964 41.6667 102.001 41.6667C120.037 41.6667 134.667 44.7933 134.667 48.6667Z" fill="#D9F78C"/>
<path d="M102 41.6667C100.816 41.6667 99.6496 41.6807 98.5 41.7087C114.892 42.082 127.667 45.0477 127.667 48.6667V70.0097C132.037 71.1997 134.667 72.6977 134.667 74.3333V48.6667C134.667 44.7933 120.037 41.6667 102 41.6667Z" fill="#C7E27F"/>
<path d="M155.667 55.6667V62.6667C155.667 63.9553 154.623 65 153.334 65H148.667C147.379 65 146.334 63.9553 146.334 62.6667V55.6667C146.334 53.0893 148.423 51 151.001 51C151.757 50.9948 152.504 51.1793 153.171 51.5367C154.703 52.3455 155.663 53.9341 155.667 55.6667Z" fill="#E8EDFC"/>
<path d="M39.0007 137.333L39.3273 137.263C40.0273 137.142 41.894 136.834 44.7313 136.43C42.7783 133.656 41.334 124.67 41.334 114C41.334 103.33 42.7807 94.3277 44.736 91.5627C41.8613 91.152 39.983 90.8347 39.304 90.7133H39.2807C39.1865 90.7028 39.0931 90.6872 39.0007 90.6667C36.434 90.6667 34.334 101.12 34.334 114C34.334 126.88 36.434 137.333 39.0007 137.333Z" fill="white"/>
<path d="M35.1152 39.6141L52.6992 33.3234L54.2719 37.7194L36.6879 44.0101L35.1152 39.6141Z" fill="white"/>
<path d="M44.7259 40.9993C43.8923 41.0035 43.1197 40.5626 42.6993 39.8428C42.2789 39.1229 42.2745 38.2335 42.6877 37.5094C43.1009 36.7854 43.8689 36.3368 44.7026 36.3327H44.7259C46.0146 36.3327 47.0592 37.3773 47.0592 38.666C47.0592 39.9547 46.0146 40.9993 44.7259 40.9993Z" fill="#A1DD46"/>
<g clip-path="url(#clip1)">
<path d="M168.897 39.6133L103.587 16.28C102.554 15.9067 101.424 15.9067 100.391 16.28L52.674 33.3367C52.0914 33.5386 51.6146 33.9666 51.3512 34.5241C51.0878 35.0816 51.06 35.7217 51.274 36.3C51.4799 36.8858 51.9109 37.3654 52.4714 37.6325C53.032 37.8997 53.6759 37.9324 54.2607 37.7233L101.977 20.6667L148.667 37.3267V49.0867C147.189 49.6159 145.932 50.6267 145.097 51.9567L137.001 54.8267V48.6667C137.001 39.59 105.594 39.3333 102.001 39.3333C98.4073 39.3333 67.0007 39.59 67.0007 48.6667V54.8267L36.6907 44C37.4972 43.7338 38.0954 43.0504 38.2525 42.2157C38.4095 41.3809 38.1006 40.5268 37.4459 39.9857C36.7912 39.4446 35.8942 39.302 35.104 39.6133C33.2449 40.2705 32.002 42.0282 32.002 44C32.002 45.9718 33.2449 47.7295 35.104 48.3867L67.0007 59.7967V74.3333C67.0007 83.41 98.4073 83.6667 102.001 83.6667C105.594 83.6667 137.001 83.41 137.001 74.3333V59.7967L144.001 57.3V62.6667C144.008 65.2408 146.093 67.3257 148.667 67.3333H153.334C155.908 67.3257 157.993 65.2408 158.001 62.6667V55.6667C158.001 54.585 157.736 53.5197 157.231 52.5633L168.897 48.3867C170.756 47.7295 171.999 45.9718 171.999 44C171.999 42.0282 170.756 40.2705 168.897 39.6133ZM102.001 79C84.734 79 73.884 76.1533 71.854 74.3333C73.884 72.5133 84.734 69.6667 102.001 69.6667C119.267 69.6667 130.117 72.5133 132.147 74.3333C130.117 76.1533 119.267 79 102.001 79ZM132.334 69.2C123.444 65.1633 104.707 65 102.001 65C99.294 65 80.5573 65.1633 71.6673 69.2V48.8767C73.0673 47.08 84.0807 44 102.001 44C119.921 44 130.934 47.08 132.334 48.8767V69.2ZM153.334 62.6667H148.667V55.6667C148.667 54.378 149.712 53.3333 151.001 53.3333C152.289 53.3333 153.334 54.378 153.334 55.6667V62.6667ZM153.334 48.9933V39.0067L167.334 44L153.334 48.9933Z" fill="#A1DD46"/>
<path d="M165 88.6667C164.86 88.6663 164.72 88.6788 164.582 88.704C143.879 91.9227 122.951 93.4708 102 93.3334C81.0488 93.4708 60.1206 91.9227 39.4177 88.704C39.2797 88.6805 39.14 88.668 39 88.6667C37.3667 88.6667 32 90.517 32 114.333C32 138.15 37.3667 140 39 140C39.1401 139.997 39.2798 139.983 39.4177 139.958C55.3256 137.438 71.383 135.974 87.4843 135.576L82.9297 146.501C82.2299 148.25 82.6553 150.249 84.0068 151.561C85.3583 152.874 87.3686 153.241 89.0967 152.49L90.8817 151.727L91.654 153.503C92.3835 155.225 94.0751 156.341 95.945 156.333H96.0033C97.8872 156.319 99.5761 155.169 100.28 153.421L104.333 143.719L108.372 153.384C109.07 155.148 110.767 156.314 112.663 156.333H112.733C114.591 156.341 116.273 155.239 117.008 153.533L117.787 151.744L119.544 152.497C121.28 153.264 123.307 152.899 124.666 151.575C126.026 150.252 126.445 148.235 125.725 146.48L121.259 135.77C135.776 136.284 150.248 137.686 164.594 139.97C164.728 139.992 164.864 140.002 165 140C166.633 140 172 138.15 172 114.333C172 90.517 166.633 88.6667 165 88.6667ZM102 98C104.55 98 107.026 97.972 109.467 97.93C110.436 101.493 111 105.154 111.149 108.843C105.858 106.383 99.6533 106.96 94.9067 110.353C94.7873 106.163 94.2503 101.995 93.3037 97.9114C96.1301 97.9705 99.0289 98 102 98ZM39 134.167C37.2122 127.714 36.4252 121.025 36.6667 114.333C36.4252 107.642 37.2122 100.953 39 94.5C40.7878 100.953 41.5748 107.642 41.3333 114.333C41.5748 121.025 40.7878 127.714 39 134.167ZM43.7133 134.573C44.9897 130.863 46 124.67 46 114.333C46 103.997 44.9897 97.804 43.711 94.0987C58.5384 96.1465 73.4669 97.3795 88.4293 97.7924C89.8288 103.191 90.4697 108.758 90.3333 114.333C90.3333 114.672 90.3333 114.994 90.3193 115.318C87.5193 119.965 87.2371 125.707 89.568 130.606L89.4653 130.853C74.1569 131.229 58.8818 132.469 43.7133 134.568V134.573ZM95.9497 151.667L94.2463 147.747C93.734 146.57 92.3672 146.027 91.1873 146.533L87.2603 148.269L92.732 135.151C94.9784 137.428 97.8443 138.994 100.973 139.655L95.9497 151.667ZM104.333 135.333C97.89 135.333 92.6667 130.11 92.6667 123.667C92.6667 117.223 97.89 112 104.333 112C110.777 112 116 117.223 116 123.667C115.992 130.107 110.773 135.326 104.333 135.333ZM121.399 148.209L117.479 146.529C116.299 146.023 114.933 146.565 114.42 147.742L112.694 151.622L107.691 139.65C110.823 138.989 113.691 137.422 115.939 135.144L121.399 148.209ZM164.533 135.217C149.542 132.91 134.426 131.507 119.267 131.017L119.101 130.615C122.035 124.432 120.777 117.072 115.956 112.215C115.938 107.376 115.379 102.554 114.29 97.839C131.115 97.4623 147.898 95.9954 164.533 93.4477C165.616 95.2864 167.333 102.559 167.333 114.333C167.333 126.107 165.604 133.378 164.533 135.217Z" fill="#A1DD46"/>
</g>
</g>
<circle cx="3.5" cy="54.5" r="3.5" fill="#A1DD46"/>
<circle cx="197.5" cy="85.5" r="4.5" fill="#A1DD46"/>
<circle cx="105" cy="4" r="4" fill="#A1DD46"/>
<circle cx="181.5" cy="57.5" r="2.5" fill="#E8FBB6"/>
<circle cx="14.5" cy="101.5" r="2.5" fill="#A1DD46"/>
<circle cx="40.5" cy="15.5" r="2.5" fill="#E8FBB6"/>
<circle cx="151.5" cy="15.5" r="1.5" fill="#A1DD46"/>
<circle cx="24.5" cy="69.5" r="2.5" fill="#E8FBB6"/>
<circle cx="186.5" cy="112.5" r="2.5" fill="#E8FBB6"/>
<defs>
<clipPath id="clip0">
<rect width="140" height="140" fill="white" transform="translate(32 16)"/>
</clipPath>
<clipPath id="clip1">
<rect width="140" height="140.333" fill="white" transform="translate(32 16)"/>
</clipPath>
</defs>
</svg>
