<svg width="170" height="56" viewBox="0 0 170 56" fill="none" xmlns="http://www.w3.org/2000/svg">
<g clip-path="url(#clip0)">
<path d="M13.6407 3.62783C15.8028 2.71361 18.1972 3.25053 19.7789 4.78873L21.3897 2.35083L12.0589 0L7.08154 8.54716L10.187 9.08408C10.0854 6.79129 11.4059 4.57106 13.6407 3.62783Z" fill="#F2781C"/>
<path d="M28.3261 39.5143C30.0529 40.2254 31.8668 40.7478 33.7098 41.096C31.417 38.7307 29.516 35.901 28.1519 32.6795C25.2206 25.7286 25.3948 18.2552 28.0358 11.7832C28.6453 10.303 29.3709 8.88094 30.227 7.51688C27.615 10.4627 24.3064 12.8715 20.4464 14.4968C19.3871 14.9467 18.2987 15.324 17.2249 15.6287C15.3094 16.1656 13.3649 16.4849 11.4349 16.601C7.99571 16.8041 4.60007 16.3398 1.39307 15.2949C6.55909 18.1537 10.8254 22.7102 13.2923 28.5583C16.2236 35.5092 16.0495 42.9825 13.4084 49.4546C12.5232 51.6313 11.3478 53.7064 9.92572 55.5928C14.9902 52.4874 18.7631 47.8873 20.9108 42.6342C21.7234 40.6172 22.3184 38.513 22.6376 36.3508C24.3935 37.6424 26.3235 38.7017 28.3261 39.5143Z" fill="#0A3A63"/>
<path d="M55.7385 11.2463V15.4691H61.4995V17.9505H55.7385V22.3329H62.196V24.9304H52.5024V8.66327H62.196V11.2463H55.7385Z" fill="#0A3A63"/>
<path d="M78.1147 21.0414C77.4327 22.2749 76.4604 23.2326 75.1835 23.9147C73.9065 24.5967 72.3828 24.945 70.6124 24.945H64.8369V8.66327H70.6124C72.3828 8.66327 73.9065 8.99703 75.1835 9.66455C76.4604 10.3321 77.4472 11.2753 78.1147 12.4943C78.7968 13.7132 79.1305 15.1353 79.1305 16.7606C79.1305 18.3858 78.7823 19.808 78.1147 21.0414ZM74.3853 20.6496C75.3431 19.7354 75.822 18.4439 75.822 16.7751C75.822 15.1063 75.3431 13.8003 74.3853 12.8861C73.4276 11.9573 72.0635 11.5075 70.3222 11.5075H68.0584V22.0427H70.3222C72.078 22.0282 73.4276 21.5638 74.3853 20.6496Z" fill="#0A3A63"/>
<path d="M84.9352 8.66327V18.1972C84.9352 19.4742 85.211 20.4319 85.7769 21.0704C86.3428 21.7089 87.141 22.0282 88.2003 22.0282C89.2451 22.0282 90.0432 21.7089 90.6092 21.0704C91.1751 20.4319 91.4508 19.4742 91.4508 18.1972V8.66327H94.6723V18.1972C94.6723 19.7064 94.3966 20.9689 93.8307 22.0137C93.2647 23.044 92.4956 23.8276 91.5089 24.3355C90.5221 24.8434 89.3902 25.0901 88.1277 25.0901C86.1832 25.0901 84.616 24.5096 83.4551 23.3342C82.2942 22.1733 81.6992 20.461 81.6992 18.1972V8.66327H84.9352Z" fill="#0A3A63"/>
<path d="M108.313 22.7828C107.892 23.4793 107.283 24.0452 106.47 24.4661C105.657 24.8869 104.671 25.1046 103.495 25.1046C102.349 25.1046 101.319 24.9159 100.404 24.5241C99.5046 24.1323 98.7791 23.5664 98.2276 22.8263C97.6762 22.0862 97.3715 21.2301 97.2989 20.2433H100.753C100.825 20.9108 101.101 21.4477 101.551 21.8976C102.001 22.3329 102.61 22.5506 103.365 22.5506C104.047 22.5506 104.555 22.3764 104.917 22.0137C105.28 21.6509 105.454 21.1865 105.454 20.6206C105.454 20.1127 105.309 19.6919 105.019 19.3581C104.729 19.0243 104.351 18.7631 103.916 18.56C103.466 18.3568 102.857 18.1246 102.073 17.8634C101.057 17.5297 100.23 17.1959 99.5917 16.8621C98.9532 16.5284 98.4018 16.0495 97.9374 15.4255C97.4876 14.8015 97.2554 13.9744 97.2554 12.9586C97.2554 11.5655 97.7633 10.4627 98.7645 9.65003C99.7658 8.83739 101.101 8.44559 102.755 8.44559C104.482 8.44559 105.846 8.86642 106.862 9.69356C107.878 10.5207 108.458 11.6236 108.603 13.0166H105.106C105.019 12.4362 104.772 11.9573 104.366 11.58C103.96 11.2027 103.423 11.0141 102.726 11.0141C102.131 11.0141 101.638 11.1737 101.275 11.493C100.912 11.8122 100.724 12.2621 100.724 12.857C100.724 13.3359 100.869 13.7277 101.144 14.047C101.435 14.3662 101.783 14.6129 102.233 14.8161C102.668 15.0192 103.263 15.2369 104.018 15.4836C105.062 15.8464 105.904 16.1946 106.557 16.5139C107.21 16.8331 107.762 17.3265 108.226 17.965C108.69 18.6035 108.922 19.4597 108.922 20.5045C108.937 21.3171 108.734 22.0862 108.313 22.7828Z" fill="#F2781C"/>
<path d="M114.814 18.8937V24.9304H111.563V8.66327H117.484C119.4 8.66327 120.851 9.12763 121.823 10.0418C122.795 10.9561 123.289 12.2185 123.289 13.8003C123.289 15.353 122.781 16.5864 121.779 17.5152C120.778 18.4439 119.342 18.8937 117.484 18.8937H114.814ZM119.995 13.8003C119.995 12.9876 119.777 12.3637 119.327 11.9283C118.877 11.493 118.152 11.2898 117.136 11.2898H114.814V16.2962H117.136C119.037 16.2962 119.995 15.4691 119.995 13.8003Z" fill="#F2781C"/>
<path d="M135.551 21.6654H129.035L127.889 24.9305H124.45L130.428 8.85193H134.143L140.107 24.9305H136.668L135.551 21.6654ZM134.666 19.1985L132.271 12.3346L129.877 19.1985H134.666Z" fill="#F2781C"/>
<path d="M154.488 10.0708C155.823 11.1157 156.708 12.5378 157.144 14.3372H153.733C153.385 13.4665 152.834 12.7699 152.079 12.262C151.339 11.7542 150.439 11.5075 149.394 11.5075C148.538 11.5075 147.755 11.7251 147.073 12.146C146.376 12.5813 145.839 13.1908 145.462 13.9889C145.085 14.787 144.881 15.7303 144.881 16.8041C144.881 17.8634 145.07 18.7921 145.462 19.5903C145.839 20.3884 146.391 20.9979 147.073 21.4332C147.769 21.8685 148.538 22.0717 149.394 22.0717C150.439 22.0717 151.339 21.825 152.079 21.3171C152.819 20.8092 153.371 20.1127 153.733 19.242H157.144C156.708 21.0414 155.838 22.4635 154.488 23.5083C153.153 24.5531 151.47 25.0755 149.438 25.0755C147.885 25.0755 146.521 24.7273 145.331 24.0307C144.141 23.3342 143.213 22.3474 142.56 21.0994C141.907 19.837 141.587 18.4148 141.587 16.8186C141.587 15.2078 141.907 13.7712 142.56 12.5087C143.213 11.2463 144.127 10.274 145.317 9.57746C146.492 8.88091 147.871 8.53264 149.438 8.53264C151.47 8.50362 153.138 9.02603 154.488 10.0708Z" fill="#F2781C"/>
<path d="M163.049 11.2463V15.4691H168.81V17.9505H163.049V22.3329H169.507V24.9304H159.813V8.66327H169.507V11.2463H163.049Z" fill="#F2781C"/>
<path d="M55.7963 36.1622C55.7963 36.612 55.7237 36.9893 55.5786 37.3231C55.4335 37.6568 55.2304 37.9035 54.9837 38.0777L55.8108 38.7307L55.39 39.1225L54.4177 38.3389C54.2581 38.3824 54.0985 38.3969 53.9389 38.3969C53.5761 38.3969 53.2568 38.3099 52.9666 38.1212C52.6909 37.9471 52.4587 37.6859 52.3136 37.3521C52.154 37.0183 52.0814 36.641 52.0669 36.1912V35.8574C52.0669 35.4076 52.1395 35.0158 52.2991 34.682C52.4587 34.3483 52.6764 34.0725 52.9521 33.8984C53.2278 33.7243 53.5616 33.6227 53.9243 33.6227C54.3016 33.6227 54.6209 33.7098 54.9111 33.8984C55.2013 34.087 55.419 34.3337 55.5641 34.682C55.7237 35.0158 55.7963 35.4221 55.7963 35.8719V36.1622ZM55.1868 35.8574C55.1868 35.306 55.0707 34.8852 54.8676 34.5949C54.6499 34.3047 54.3452 34.1451 53.9389 34.1451C53.5616 34.1451 53.2568 34.2902 53.0246 34.5804C52.807 34.8707 52.6909 35.277 52.6764 35.7994V36.1332C52.6764 36.6701 52.7925 37.0764 53.0101 37.3811C53.2278 37.6859 53.5471 37.8455 53.9389 37.8455C54.3307 37.8455 54.6354 37.7004 54.8531 37.4102C55.0707 37.1199 55.1868 36.7136 55.1868 36.1767V35.8574Z" fill="#0A3A63"/>
<path d="M58.7712 37.9907C58.539 38.2664 58.2053 38.397 57.7554 38.397C57.3926 38.397 57.1024 38.2954 56.9138 38.0777C56.7251 37.86 56.6235 37.5553 56.6235 37.1345V34.8852H57.2185V37.1055C57.2185 37.6279 57.4362 37.8891 57.857 37.8891C58.3068 37.8891 58.6116 37.7149 58.7567 37.3812V34.8707H59.3517V38.3099H58.7857L58.7712 37.9907Z" fill="#0A3A63"/>
<path d="M62.37 38.3389C62.341 38.2663 62.312 38.1503 62.2829 37.9761C62.0072 38.2663 61.688 38.3969 61.2962 38.3969C60.9624 38.3969 60.6722 38.2954 60.4545 38.1067C60.2368 37.9181 60.1353 37.6714 60.1353 37.3812C60.1353 37.0184 60.2659 36.7427 60.5416 36.5395C60.8173 36.3363 61.1946 36.2348 61.688 36.2348H62.2684V35.959C62.2684 35.7559 62.2104 35.5963 62.0798 35.4657C61.9637 35.3496 61.775 35.277 61.5283 35.277C61.3252 35.277 61.1365 35.3351 61.0059 35.4366C60.8608 35.5382 60.7883 35.6688 60.7883 35.8284H60.1933C60.1933 35.6543 60.2513 35.4947 60.3819 35.3351C60.5126 35.1754 60.6722 35.0448 60.8753 34.9578C61.0785 34.8707 61.3107 34.8126 61.5719 34.8126C61.9637 34.8126 62.2829 34.9142 62.5006 35.1174C62.7183 35.3205 62.8489 35.5963 62.8489 35.9445V37.5263C62.8489 37.8455 62.8924 38.0922 62.965 38.2808V38.3389H62.37ZM61.3832 37.889C61.5719 37.889 61.746 37.8455 61.9056 37.7439C62.0653 37.6424 62.1959 37.5263 62.2684 37.3666V36.6556H61.8186C61.093 36.6556 60.7302 36.8733 60.7302 37.2941C60.7302 37.4827 60.7883 37.6278 60.9189 37.7294C61.035 37.831 61.1946 37.889 61.3832 37.889ZM61.4413 34.3193V33.8259C61.6009 33.8114 61.717 33.7969 61.7895 33.7678C61.8621 33.7388 61.9056 33.6808 61.9056 33.5937C61.9056 33.5066 61.8621 33.4486 61.7605 33.405C61.6589 33.3615 61.5429 33.347 61.3832 33.347L61.4123 33.0132C61.7315 33.0132 61.9637 33.0713 62.1378 33.1729C62.2974 33.289 62.3845 33.4341 62.3845 33.6082C62.3845 33.7388 62.341 33.8404 62.2539 33.9275C62.1668 34.0145 62.0507 34.0726 61.8911 34.0871V34.3193H61.4413Z" fill="#0A3A63"/>
<path d="M64.3431 34.8852L64.3577 35.3205C64.6189 34.9868 64.9671 34.8271 65.388 34.8271C66.1135 34.8271 66.4763 35.2335 66.4908 36.0606V38.3389H65.8959V36.0606C65.8959 35.8139 65.8378 35.6253 65.7217 35.5092C65.6056 35.3931 65.4315 35.335 65.1993 35.335C65.0107 35.335 64.8365 35.3931 64.6914 35.4947C64.5463 35.5963 64.4302 35.7269 64.3577 35.901V38.3534H63.7627V34.9142H64.3431V34.8852Z" fill="#0A3A63"/>
<path d="M69.6399 38.3389H69.0449V33.4486H69.6399V38.3389Z" fill="#0A3A63"/>
<path d="M71.7152 37.4682L72.5134 34.8852H73.1373L71.7588 38.8613C71.5411 39.4418 71.2073 39.7175 70.743 39.7175L70.6269 39.703L70.4092 39.6594V39.1806L70.5688 39.1951C70.772 39.1951 70.9171 39.1515 71.0332 39.079C71.1493 38.9919 71.2364 38.8468 71.3089 38.6291L71.4395 38.2809L70.2061 34.8707H70.8446L71.7152 37.4682ZM72.049 33.4341H72.76L71.9039 34.3773H71.425L72.049 33.4341Z" fill="#0A3A63"/>
<path d="M76.0832 34.0581V34.8997H76.7217V35.3496H76.0832V37.4827C76.0832 37.6278 76.1122 37.7294 76.1703 37.7875C76.2283 37.86 76.3299 37.889 76.4605 37.889C76.5331 37.889 76.6201 37.8745 76.7362 37.8455V38.3244C76.5766 38.3679 76.4315 38.3824 76.2864 38.3824C76.0252 38.3824 75.822 38.3099 75.6914 38.1502C75.5608 37.9906 75.4882 37.7584 75.4882 37.4682V35.3351H74.8643V34.8852H75.4882V34.0435H76.0832V34.0581Z" fill="#0A3A63"/>
<path d="M79.0868 35.4221C78.9997 35.4076 78.8981 35.3931 78.7965 35.3931C78.4047 35.3931 78.1435 35.5527 78.0129 35.8865V38.3389H77.418V34.8997H77.9984L78.0129 35.2915C78.2016 34.9868 78.4773 34.8271 78.8401 34.8271C78.9562 34.8271 79.0432 34.8417 79.1013 34.8707V35.4221H79.0868Z" fill="#0A3A63"/>
<path d="M81.7424 37.9907C81.5102 38.2664 81.1765 38.397 80.7266 38.397C80.3638 38.397 80.0736 38.2954 79.885 38.0777C79.6963 37.86 79.5947 37.5553 79.5947 37.1345V34.8852H80.1897V37.1055C80.1897 37.6279 80.4074 37.8891 80.8282 37.8891C81.278 37.8891 81.5828 37.7149 81.7279 37.3812V34.8707H82.3229V38.3099H81.7569L81.7424 37.9907Z" fill="#0A3A63"/>
<path d="M83.7743 34.8852L83.7888 35.3205C84.05 34.9868 84.3983 34.8271 84.8191 34.8271C85.5447 34.8271 85.9075 35.2335 85.922 36.0606V38.3389H85.327V36.0606C85.327 35.8139 85.269 35.6253 85.1529 35.5092C85.0368 35.3931 84.8626 35.335 84.6305 35.335C84.4418 35.335 84.2677 35.3931 84.1226 35.4947C83.9775 35.5963 83.8614 35.7269 83.7888 35.901V38.3534H83.1938V34.9142H83.7743V34.8852Z" fill="#0A3A63"/>
<path d="M86.6763 36.583C86.6763 36.0461 86.8069 35.6253 87.0536 35.306C87.3003 34.9868 87.634 34.8271 88.0403 34.8271C88.4612 34.8271 88.7949 34.9723 89.0271 35.277L89.0561 34.8997H89.5931V38.2663C89.5931 38.7162 89.4625 39.0645 89.2012 39.3257C88.94 39.5869 88.5773 39.7175 88.1419 39.7175C87.8952 39.7175 87.6485 39.6594 87.4164 39.5579C87.1842 39.4563 86.9955 39.3112 86.8649 39.1225L87.1697 38.7742C87.4164 39.0935 87.7356 39.2386 88.0984 39.2386C88.3886 39.2386 88.6063 39.1515 88.7659 38.9919C88.9255 38.8323 89.0126 38.6001 89.0126 38.3099V38.0196C88.7804 38.2954 88.4612 38.426 88.0403 38.426C87.634 38.426 87.3148 38.2663 87.0681 37.9326C86.8069 37.5843 86.6763 37.1345 86.6763 36.583ZM87.2712 36.6411C87.2712 37.0329 87.3438 37.3376 87.5034 37.5553C87.663 37.773 87.8807 37.889 88.1709 37.889C88.5482 37.889 88.8094 37.7149 88.9836 37.3811V35.8139C88.8094 35.4802 88.5337 35.3205 88.1709 35.3205C87.8807 35.3205 87.663 35.4366 87.5034 35.6543C87.3438 35.8865 87.2712 36.2057 87.2712 36.6411Z" fill="#0A3A63"/>
<path d="M92.8874 34.0581V34.8997H93.5259V35.3496H92.8874V37.4827C92.8874 37.6278 92.9164 37.7294 92.9745 37.7875C93.0325 37.86 93.1341 37.889 93.2647 37.889C93.3373 37.889 93.4243 37.8745 93.5404 37.8455V38.3244C93.3808 38.3679 93.2357 38.3824 93.0906 38.3824C92.8294 38.3824 92.6262 38.3099 92.4956 38.1502C92.365 37.9906 92.2924 37.7584 92.2924 37.4682V35.3351H91.6685V34.8852H92.2924V34.0435H92.8874V34.0581Z" fill="#0A3A63"/>
<path d="M96.3407 38.3389C96.3117 38.2664 96.2827 38.1503 96.2537 37.9761C95.978 38.2664 95.6587 38.397 95.2669 38.397C94.9331 38.397 94.6429 38.2954 94.4252 38.1067C94.2075 37.9181 94.106 37.6714 94.106 37.3812C94.106 37.0184 94.2366 36.7427 94.5123 36.5395C94.788 36.3363 95.1653 36.2348 95.6587 36.2348H96.2392V35.9591C96.2392 35.7559 96.1811 35.5963 96.0505 35.4657C95.9344 35.3496 95.7458 35.277 95.4991 35.277C95.2959 35.277 95.1073 35.3351 94.9767 35.4366C94.8315 35.5382 94.759 35.6688 94.759 35.8284H94.164C94.164 35.6543 94.2221 35.4947 94.3527 35.3351C94.4833 35.1754 94.6429 35.0448 94.846 34.9578C95.0492 34.8707 95.2814 34.8127 95.5426 34.8127C95.9344 34.8127 96.2537 34.9142 96.4713 35.1174C96.689 35.3206 96.8196 35.5963 96.8196 35.9445V37.5263C96.8196 37.8455 96.8632 38.0922 96.9357 38.2809V38.3389H96.3407ZM96.5874 34.3193V34.3483H96.0941L95.6152 33.8114L95.1363 34.3483H94.6429V34.3048L95.4265 33.4341H95.7893L96.5874 34.3193ZM95.3685 37.8891C95.5571 37.8891 95.7313 37.8455 95.8909 37.7439C96.0505 37.6424 96.1811 37.5263 96.2537 37.3666V36.6556H95.7893C95.0637 36.6556 94.7009 36.8733 94.7009 37.2941C94.7009 37.4827 94.759 37.6279 94.8896 37.7294C95.0202 37.831 95.1798 37.8891 95.3685 37.8891Z" fill="#0A3A63"/>
<path d="M98.3288 34.8852L98.3434 35.2625C98.5901 34.9723 98.9383 34.8127 99.3592 34.8127C99.838 34.8127 100.172 35.0013 100.346 35.3641C100.462 35.2045 100.607 35.0594 100.796 34.9578C100.984 34.8562 101.202 34.7982 101.449 34.7982C102.203 34.7982 102.595 35.2045 102.595 36.0026V38.3099H102V36.0316C102 35.7849 101.942 35.5963 101.826 35.4802C101.71 35.3641 101.521 35.2915 101.26 35.2915C101.042 35.2915 100.854 35.3641 100.709 35.4802C100.564 35.6108 100.477 35.7849 100.462 36.0026V38.2954H99.8671V36.0316C99.8671 35.5237 99.6204 35.277 99.127 35.277C98.7352 35.277 98.474 35.4367 98.3288 35.7704V38.2809H97.7339V34.8417H98.3288V34.8852Z" fill="#0A3A63"/>
<path d="M108.458 34.4063H107.863V38.3389H107.326L107.297 37.9761C107.065 38.2663 106.731 38.4115 106.31 38.4115C105.904 38.4115 105.584 38.2518 105.338 37.9181C105.091 37.5843 104.96 37.1635 104.96 36.6411V36.5975C104.96 36.0751 105.091 35.6398 105.338 35.3205C105.584 35.0013 105.918 34.8417 106.325 34.8417C106.731 34.8417 107.05 34.9868 107.282 35.2625V34.4354H106.441V33.9565H107.282V33.4776H107.877V33.9565H108.472V34.4063H108.458ZM105.541 36.6411C105.541 37.0329 105.628 37.3376 105.788 37.5553C105.947 37.773 106.165 37.8891 106.455 37.8891C106.832 37.8891 107.108 37.7149 107.268 37.3812V35.7994C107.094 35.4802 106.818 35.306 106.455 35.306C106.165 35.306 105.947 35.4221 105.773 35.6398C105.628 35.8865 105.541 36.2057 105.541 36.6411Z" fill="#0A3A63"/>
<path d="M111.128 38.3389C111.099 38.2664 111.07 38.1503 111.041 37.9761C110.765 38.2664 110.446 38.397 110.054 38.397C109.72 38.397 109.43 38.2954 109.212 38.1067C108.995 37.9181 108.893 37.6714 108.893 37.3812C108.893 37.0184 109.024 36.7427 109.299 36.5395C109.575 36.3363 109.952 36.2348 110.446 36.2348H111.026V35.9591C111.026 35.7559 110.968 35.5963 110.838 35.4657C110.721 35.3496 110.533 35.277 110.286 35.277C110.083 35.277 109.894 35.3351 109.764 35.4366C109.619 35.5382 109.546 35.6688 109.546 35.8284H108.951C108.951 35.6543 109.009 35.4947 109.14 35.3351C109.27 35.1754 109.43 35.0448 109.633 34.9578C109.836 34.8707 110.068 34.8127 110.33 34.8127C110.721 34.8127 111.041 34.9142 111.258 35.1174C111.476 35.3206 111.607 35.5963 111.607 35.9445V37.5263C111.607 37.8455 111.65 38.0922 111.723 38.2809V38.3389H111.128ZM110.736 34.3773H110.228L109.401 33.4341H110.112L110.736 34.3773ZM110.141 37.8891C110.33 37.8891 110.504 37.8455 110.663 37.7439C110.823 37.6424 110.954 37.5263 111.026 37.3666V36.6556H110.562C109.836 36.6556 109.474 36.8733 109.474 37.2941C109.474 37.4827 109.532 37.6279 109.662 37.7294C109.793 37.831 109.952 37.8891 110.141 37.8891Z" fill="#0A3A63"/>
<path d="M112.39 36.583C112.39 36.2493 112.463 35.9445 112.593 35.6688C112.724 35.3931 112.913 35.1899 113.145 35.0448C113.377 34.8997 113.653 34.8271 113.957 34.8271C114.422 34.8271 114.799 34.9868 115.089 35.3205C115.379 35.6398 115.525 36.0751 115.525 36.612V36.6556C115.525 36.9893 115.466 37.2941 115.336 37.5553C115.205 37.8165 115.017 38.0342 114.784 38.1793C114.552 38.3244 114.277 38.3969 113.957 38.3969C113.493 38.3969 113.116 38.2373 112.825 37.9036C112.535 37.5698 112.39 37.149 112.39 36.612V36.583ZM112.971 36.6411C112.971 37.0184 113.058 37.3231 113.232 37.5553C113.406 37.7875 113.653 37.9036 113.943 37.9036C114.248 37.9036 114.48 37.7875 114.654 37.5553C114.828 37.3231 114.915 36.9893 114.915 36.5685C114.915 36.1912 114.828 35.8865 114.639 35.6543C114.465 35.4221 114.219 35.306 113.928 35.306C113.638 35.306 113.406 35.4221 113.232 35.6543C113.072 35.8865 112.971 36.2202 112.971 36.6411Z" fill="#0A3A63"/>
<path d="M118.674 34.0581V34.8997H119.312V35.3496H118.674V37.4827C118.674 37.6278 118.703 37.7294 118.761 37.7875C118.819 37.86 118.92 37.889 119.051 37.889C119.123 37.889 119.21 37.8745 119.327 37.8455V38.3244C119.167 38.3679 119.022 38.3824 118.877 38.3824C118.615 38.3824 118.412 38.3099 118.282 38.1502C118.151 37.9906 118.079 37.7584 118.079 37.4682V35.3351H117.455V34.8852H118.079V34.0435H118.674V34.0581Z" fill="#0A3A63"/>
<path d="M122.128 38.3389C122.099 38.2663 122.07 38.1503 122.041 37.9761C121.765 38.2663 121.446 38.3969 121.054 38.3969C120.72 38.3969 120.43 38.2954 120.212 38.1067C119.995 37.9181 119.893 37.6714 119.893 37.3812C119.893 37.0184 120.024 36.7427 120.299 36.5395C120.575 36.3363 120.952 36.2348 121.446 36.2348H122.026V35.959C122.026 35.7559 121.968 35.5963 121.838 35.4657C121.721 35.3496 121.533 35.277 121.286 35.277C121.083 35.277 120.894 35.3351 120.764 35.4366C120.619 35.5382 120.546 35.6688 120.546 35.8284H119.951C119.951 35.6543 120.009 35.4947 120.14 35.3351C120.27 35.1754 120.43 35.0448 120.633 34.9578C120.836 34.8707 121.068 34.8127 121.33 34.8127C121.721 34.8127 122.041 34.9142 122.258 35.1174C122.476 35.3205 122.607 35.5963 122.607 35.9445V37.5263C122.607 37.8455 122.65 38.0922 122.723 38.2809V38.3389H122.128ZM121.156 37.8891C121.344 37.8891 121.518 37.8455 121.678 37.7439C121.838 37.6424 121.968 37.5263 122.041 37.3666V36.6556H121.576C120.851 36.6556 120.488 36.8733 120.488 37.2941C120.488 37.4827 120.546 37.6278 120.677 37.7294C120.807 37.831 120.967 37.8891 121.156 37.8891ZM120.793 39.108C120.793 39.0064 120.822 38.9339 120.88 38.8613C120.938 38.7888 121.025 38.7597 121.141 38.7597C121.257 38.7597 121.344 38.7888 121.402 38.8613C121.46 38.9339 121.489 39.0064 121.489 39.108C121.489 39.2096 121.46 39.2821 121.402 39.3402C121.344 39.3982 121.257 39.4418 121.141 39.4418C121.025 39.4418 120.938 39.4127 120.88 39.3402C120.822 39.2821 120.793 39.2096 120.793 39.108Z" fill="#0A3A63"/>
<path d="M123.404 36.583C123.404 36.2493 123.477 35.9445 123.607 35.6688C123.738 35.3931 123.927 35.1899 124.159 35.0448C124.391 34.8997 124.667 34.8271 124.972 34.8271C125.436 34.8271 125.813 34.9868 126.103 35.3205C126.394 35.6398 126.539 36.0751 126.539 36.612V36.6556C126.539 36.9893 126.481 37.2941 126.35 37.5553C126.219 37.8165 126.031 38.0342 125.799 38.1793C125.566 38.3244 125.291 38.3969 124.972 38.3969C124.507 38.3969 124.13 38.2373 123.84 37.9036C123.549 37.5698 123.404 37.149 123.404 36.612V36.583ZM123.985 36.6411C123.985 37.0184 124.072 37.3231 124.246 37.5553C124.42 37.7875 124.667 37.9036 124.957 37.9036C125.262 37.9036 125.494 37.7875 125.668 37.5553C125.842 37.3231 125.929 36.9893 125.929 36.5685C125.929 36.1912 125.842 35.8865 125.654 35.6543C125.479 35.4221 125.233 35.306 124.942 35.306C124.652 35.306 124.42 35.4221 124.246 35.6543C124.086 35.8865 123.985 36.2202 123.985 36.6411Z" fill="#0A3A63"/>
<path d="M130.268 37.9181C130.471 37.9181 130.66 37.86 130.82 37.7294C130.979 37.5988 131.066 37.4392 131.081 37.2506H131.632C131.618 37.4537 131.56 37.6424 131.429 37.8165C131.298 37.9906 131.139 38.1357 130.921 38.2373C130.703 38.3389 130.486 38.3969 130.254 38.3969C129.789 38.3969 129.412 38.2373 129.136 37.9326C128.86 37.6278 128.715 37.1925 128.715 36.6411V36.5395C128.715 36.2057 128.773 35.901 128.904 35.6398C129.035 35.3786 129.209 35.1754 129.441 35.0303C129.673 34.8852 129.949 34.8127 130.254 34.8127C130.645 34.8127 130.965 34.9287 131.211 35.1609C131.458 35.3931 131.603 35.6978 131.618 36.0606H131.066C131.052 35.843 130.965 35.6543 130.82 35.5092C130.674 35.3641 130.486 35.2915 130.254 35.2915C129.949 35.2915 129.717 35.3931 129.557 35.6108C129.397 35.8284 129.31 36.1332 129.31 36.5395V36.6556C129.31 37.0474 129.397 37.3521 129.557 37.5698C129.731 37.802 129.963 37.9181 130.268 37.9181Z" fill="#0A3A63"/>
<path d="M132.895 35.306C133.156 34.9868 133.49 34.8272 133.911 34.8272C134.636 34.8272 134.999 35.2335 135.014 36.0606V38.3389H134.419V36.0606C134.419 35.8139 134.361 35.6253 134.245 35.5092C134.129 35.3931 133.954 35.3351 133.722 35.3351C133.534 35.3351 133.359 35.3931 133.214 35.4947C133.069 35.5963 132.953 35.7269 132.881 35.901V38.3534H132.286V33.4631H132.881V35.306H132.895Z" fill="#0A3A63"/>
<path d="M138.017 37.9907C137.785 38.2664 137.451 38.397 137.002 38.397C136.639 38.397 136.349 38.2954 136.16 38.0777C135.971 37.86 135.87 37.5553 135.87 37.1345V34.8852H136.465V37.1055C136.465 37.6279 136.682 37.8891 137.103 37.8891C137.553 37.8891 137.858 37.7149 138.003 37.3812V34.8707H138.598V38.3099H138.032L138.017 37.9907Z" fill="#0A3A63"/>
<path d="M140.615 37.4682L141.413 34.8852H142.037L140.659 38.8613C140.441 39.4418 140.107 39.7175 139.643 39.7175L139.527 39.703L139.309 39.6594V39.1806L139.469 39.1951C139.672 39.1951 139.817 39.1515 139.933 39.079C140.049 38.9919 140.136 38.8468 140.209 38.6291L140.339 38.2809L139.106 34.8707H139.744L140.615 37.4682Z" fill="#0A3A63"/>
<path d="M143.967 38.397C143.503 38.397 143.125 38.2373 142.821 37.9326C142.53 37.6279 142.385 37.2215 142.385 36.6991V36.5975C142.385 36.2493 142.458 35.9445 142.574 35.6833C142.705 35.4076 142.893 35.2045 143.125 35.0594C143.358 34.9142 143.619 34.8272 143.894 34.8272C144.344 34.8272 144.693 34.9723 144.939 35.2625C145.186 35.5527 145.317 35.9736 145.317 36.525V36.7717H142.98C142.995 37.1054 143.082 37.3812 143.285 37.5988C143.474 37.802 143.72 37.9181 144.011 37.9181C144.214 37.9181 144.388 37.8745 144.533 37.7875C144.678 37.7004 144.809 37.5843 144.91 37.4537L145.273 37.7294C144.983 38.1793 144.547 38.397 143.967 38.397ZM144.852 34.3193V34.3483H144.359L143.88 33.8114L143.401 34.3483H142.908V34.3048L143.691 33.4341H144.054L144.852 34.3193ZM143.894 35.306C143.662 35.306 143.459 35.3931 143.299 35.5672C143.14 35.7414 143.038 35.9881 142.995 36.2928H144.722V36.2493C144.707 35.9445 144.62 35.7124 144.475 35.5527C144.33 35.3931 144.141 35.306 143.894 35.306Z" fill="#0A3A63"/>
<path d="M146.55 34.8852L146.565 35.3205C146.826 34.9868 147.174 34.8271 147.595 34.8271C148.321 34.8271 148.683 35.2335 148.698 36.0606V38.3389H148.103V36.0606C148.103 35.8139 148.045 35.6253 147.929 35.5092C147.813 35.3931 147.639 35.335 147.406 35.335C147.218 35.335 147.044 35.3931 146.898 35.4947C146.753 35.5963 146.637 35.7269 146.565 35.901V38.3534H145.97V34.9142H146.55V34.8852Z" fill="#0A3A63"/>
<path d="M151.76 34.8852L151.774 35.3205C152.035 34.9868 152.384 34.8271 152.804 34.8271C153.53 34.8271 153.893 35.2335 153.907 36.0606V38.3389H153.312V36.0606C153.312 35.8139 153.254 35.6253 153.138 35.5092C153.022 35.3931 152.848 35.335 152.616 35.335C152.427 35.335 152.253 35.3931 152.108 35.4947C151.963 35.5963 151.847 35.7269 151.774 35.901V38.3534H151.179V34.9142H151.76V34.8852Z" fill="#0A3A63"/>
<path d="M154.662 36.583C154.662 36.0461 154.793 35.6253 155.039 35.306C155.286 34.9868 155.62 34.8271 156.026 34.8271C156.447 34.8271 156.781 34.9723 157.013 35.277L157.042 34.8997H157.579V38.2663C157.579 38.7162 157.448 39.0645 157.187 39.3257C156.926 39.5869 156.563 39.7175 156.128 39.7175C155.881 39.7175 155.634 39.6594 155.402 39.5579C155.17 39.4563 154.981 39.3112 154.851 39.1225L155.155 38.7742C155.402 39.0935 155.721 39.2386 156.084 39.2386C156.374 39.2386 156.592 39.1515 156.752 38.9919C156.911 38.8323 156.998 38.6001 156.998 38.3099V38.0196C156.766 38.2954 156.447 38.426 156.026 38.426C155.62 38.426 155.301 38.2663 155.054 37.9326C154.793 37.5843 154.662 37.1345 154.662 36.583ZM155.257 36.6411C155.257 37.0329 155.33 37.3376 155.489 37.5553C155.649 37.773 155.867 37.889 156.157 37.889C156.534 37.889 156.795 37.7149 156.969 37.3811V35.8139C156.795 35.4802 156.52 35.3205 156.157 35.3205C155.867 35.3205 155.649 35.4366 155.489 35.6543C155.33 35.8865 155.257 36.2057 155.257 36.6411Z" fill="#0A3A63"/>
<path d="M159.059 35.306C159.32 34.9868 159.654 34.8272 160.074 34.8272C160.8 34.8272 161.163 35.2335 161.177 36.0606V38.3389H160.582V36.0606C160.582 35.8139 160.524 35.6253 160.408 35.5092C160.292 35.3931 160.118 35.3351 159.886 35.3351C159.697 35.3351 159.523 35.3931 159.378 35.4947C159.233 35.5963 159.117 35.7269 159.044 35.901V38.3534H158.449V33.4631H159.044V35.306H159.059Z" fill="#0A3A63"/>
<path d="M162.062 33.971C162.062 33.8694 162.092 33.7968 162.15 33.7243C162.208 33.6517 162.295 33.6227 162.411 33.6227C162.527 33.6227 162.614 33.6517 162.672 33.7243C162.73 33.7968 162.759 33.8694 162.759 33.971C162.759 34.0725 162.73 34.1451 162.672 34.2031C162.614 34.2612 162.527 34.3047 162.411 34.3047C162.295 34.3047 162.208 34.2757 162.15 34.2031C162.092 34.1451 162.062 34.0725 162.062 33.971ZM162.701 38.3389H162.106V34.8997H162.701V38.3389Z" fill="#0A3A63"/>
<path d="M165.067 38.397C164.602 38.397 164.225 38.2373 163.92 37.9326C163.63 37.6279 163.485 37.2215 163.485 36.6991V36.5975C163.485 36.2493 163.557 35.9445 163.674 35.6833C163.804 35.4076 163.993 35.2045 164.225 35.0594C164.457 34.9142 164.718 34.8272 164.994 34.8272C165.444 34.8272 165.792 34.9723 166.039 35.2625C166.286 35.5527 166.416 35.9736 166.416 36.525V36.7717H164.08C164.094 37.1054 164.181 37.3812 164.385 37.5988C164.573 37.802 164.82 37.9181 165.11 37.9181C165.313 37.9181 165.487 37.8745 165.633 37.7875C165.778 37.7004 165.908 37.5843 166.01 37.4537L166.373 37.7294C166.082 38.1793 165.647 38.397 165.067 38.397ZM165.952 34.3193V34.3483H165.458L164.98 33.8114L164.501 34.3483H164.007V34.3048L164.791 33.4341H165.154L165.952 34.3193ZM164.994 35.306C164.762 35.306 164.559 35.3931 164.399 35.5672C164.239 35.7414 164.138 35.9881 164.094 36.2928H165.821V36.2493C165.807 35.9445 165.72 35.7124 165.575 35.5527C165.429 35.3931 165.241 35.306 164.994 35.306ZM164.631 39.108C164.631 39.0064 164.66 38.9339 164.718 38.8613C164.776 38.7888 164.863 38.7597 164.98 38.7597C165.096 38.7597 165.183 38.7888 165.241 38.8613C165.299 38.9339 165.328 39.0064 165.328 39.108C165.328 39.2096 165.299 39.2821 165.241 39.3402C165.183 39.3982 165.096 39.4418 164.98 39.4418C164.863 39.4418 164.776 39.4127 164.718 39.3402C164.66 39.2821 164.631 39.2096 164.631 39.108Z" fill="#0A3A63"/>
<path d="M170 36.6411C170 37.1635 169.884 37.5843 169.637 37.9036C169.391 38.2228 169.072 38.3824 168.665 38.3824C168.244 38.3824 167.925 38.2518 167.678 37.9906V39.6449H167.083V34.8707H167.62L167.649 35.248C167.896 34.9578 168.23 34.7982 168.651 34.7982C169.072 34.7982 169.391 34.9578 169.637 35.2625C169.884 35.5818 170 36.0026 170 36.5685V36.6411ZM169.42 36.583C169.42 36.1912 169.333 35.8865 169.173 35.6688C169.013 35.4367 168.781 35.3351 168.491 35.3351C168.128 35.3351 167.867 35.4947 167.693 35.8139V37.4392C167.867 37.7585 168.143 37.9036 168.506 37.9036C168.781 37.9036 169.013 37.7875 169.173 37.5698C169.333 37.3521 169.42 37.0184 169.42 36.583Z" fill="#0A3A63"/>
<path d="M10.4485 23.6534C2.48174 28.4712 -1.74105 33.9565 0.667828 37.1489C2.6849 39.8335 8.88123 40.2253 16.4126 38.5711C18.4007 38.1357 20.4903 37.5553 22.6234 36.8442C24.3213 36.2783 26.0481 35.6107 27.7895 34.8707C27.9636 34.7981 28.1377 34.7256 28.3264 34.6385C29.3567 34.1886 30.3435 33.7243 31.2867 33.2454C41.7348 27.9923 47.7715 21.2736 44.9854 17.5877C42.7361 14.5984 35.3063 14.4533 26.614 16.8041L26.556 17.0218C32.4331 15.7012 37.2508 15.9334 38.7745 17.965C40.8206 20.6786 36.3511 25.656 28.5731 29.6901C27.6298 30.1835 26.6431 30.6624 25.6128 31.1122C22.4348 32.5198 19.2423 33.5646 16.3255 34.2177C10.463 35.5382 5.65972 35.2915 4.12152 33.2599C2.43821 31.0252 5.18084 27.2522 10.5355 23.7405L10.4485 23.6534Z" fill="#F2781C"/>
<path d="M15.8319 13.3359C18.3243 13.3359 20.3449 11.3153 20.3449 8.82286C20.3449 6.33039 18.3243 4.30984 15.8319 4.30984C13.3394 4.30984 11.3188 6.33039 11.3188 8.82286C11.3188 11.3153 13.3394 13.3359 15.8319 13.3359Z" fill="#0A3A63"/>
</g>
<defs>
<clipPath id="clip0">
<rect width="170" height="55.6073" fill="white"/>
</clipPath>
</defs>
</svg>
