<svg width="66" height="274" viewBox="0 0 66 274" fill="none" xmlns="http://www.w3.org/2000/svg">
<path opacity="0.1" d="M18.0068 35.8369C20.2627 35.8369 22.0205 35.0312 23.2803 33.4199C24.54 31.8379 25.8437 29.04 27.1914 25.0264C28.5391 21.0127 29.8428 17.7314 31.1025 15.1826C35.1748 6.8916 40.7705 2.74609 47.8896 2.74609C51.4346 2.74609 54.5547 3.77148 57.25 5.82226C59.9746 7.90234 62.084 10.832 63.5781 14.6113C65.1016 18.3906 65.8633 22.6387 65.8633 27.3555C65.8633 31.9551 65.043 36.0713 63.4023 39.7041C61.7617 43.3662 59.418 46.208 56.3711 48.2295C53.3535 50.251 49.8965 51.2617 46 51.2617L46 35.8809C48.6074 35.8809 50.6289 35.0752 52.0645 33.4639C53.5 31.8818 54.2178 29.7285 54.2178 27.0039C54.2178 24.25 53.6025 22.0674 52.3721 20.4561C51.1709 18.874 49.6328 18.083 47.7578 18.083C46.1172 18.083 44.623 18.9619 43.2754 20.7197C41.957 22.4775 40.5801 25.5684 39.1445 29.9922C37.7383 34.416 36.2148 38.0488 34.5742 40.8906C30.5898 47.8047 25.0967 51.2617 18.0947 51.2617C12.499 51.2617 8.10449 49.1523 4.91113 44.9336C1.71777 40.7148 0.121092 34.9287 0.121092 27.5752C0.121093 22.3896 1.04394 17.6875 2.88965 13.4687C4.76465 9.27929 7.31348 6.11523 10.5361 3.97656C13.7881 1.86718 17.5234 0.812497 21.7422 0.812497L21.7422 16.2812C18.3145 16.2812 15.7803 17.1602 14.1396 18.918C12.5283 20.7051 11.7227 23.5908 11.7227 27.5752C11.7227 30.124 12.2646 32.1309 13.3486 33.5957C14.4619 35.0898 16.0146 35.8369 18.0068 35.8369ZM22.709 74.5967L0.999997 74.5967L0.999997 59.1719L64.9844 59.1719L64.9844 84.7041C64.9844 89.5967 64.0762 93.918 62.2598 97.668C60.4727 101.447 57.9092 104.362 54.5693 106.413C51.2588 108.493 47.4941 109.533 43.2754 109.533C37.0352 109.533 32.04 107.292 28.29 102.81C24.5693 98.3564 22.709 92.2334 22.709 84.4404L22.709 74.5967ZM34.6182 74.5967L34.6182 84.7041C34.6182 87.6924 35.3652 89.9629 36.8594 91.5156C38.3535 93.0977 40.4629 93.8887 43.1875 93.8887C46.1758 93.8887 48.5635 93.083 50.3506 91.4717C52.1377 89.8603 53.0459 87.6631 53.0752 84.8799L53.0752 74.5967L34.6182 74.5967ZM12.9531 146.315L12.9531 125.178L0.999995 121.486L0.999995 105.007L64.9844 128.474L64.9844 142.976L0.999993 166.618L0.999993 150.051L12.9531 146.315ZM24.8623 128.869L24.8623 142.624L47.0547 135.725L24.8623 128.869ZM22.665 222.121C18.2119 221.916 14.2715 220.715 10.8437 218.518C7.4453 216.32 4.80858 213.229 2.93358 209.245C1.05858 205.29 0.121085 200.764 0.121085 195.666C0.121085 187.258 2.86034 180.637 8.33886 175.803C13.8174 170.969 21.5518 168.552 31.542 168.552L34.706 168.552C40.9756 168.552 46.4541 169.636 51.1416 171.804C55.8584 174.001 59.4912 177.15 62.04 181.252C64.6182 185.354 65.9072 190.1 65.9072 195.49C65.9072 203.254 63.8564 209.494 59.7549 214.211C55.6826 218.928 50.0576 221.608 42.8799 222.253L42.8799 206.872C46.7764 206.755 49.5742 205.773 51.2734 203.928C52.9726 202.082 53.8223 199.27 53.8223 195.49C53.8223 191.652 52.3867 188.84 49.5156 187.053C46.6445 185.266 42.0596 184.328 35.7607 184.24L31.2344 184.24C24.4082 184.24 19.5303 185.09 16.6006 186.789C13.6709 188.518 12.206 191.477 12.206 195.666C12.206 199.211 13.041 201.921 14.7109 203.796C16.3809 205.671 19.0322 206.667 22.665 206.784L22.665 222.121ZM28.1142 269.099L28.1142 244.841L12.8652 244.841L12.8652 273.493L0.999988 273.493L0.99999 229.416L64.9844 229.416L64.9844 273.581L53.0752 273.581L53.0752 244.841L39.584 244.841L39.584 269.099L28.1142 269.099Z" fill="black"/>
</svg>
